<?xml version="1.0" standalone="no"?>
<!DOCTYPE svg PUBLIC "-//W3C//DTD SVG 1.1//EN" "http://www.w3.org/Graphics/SVG/1.1/DTD/svg11.dtd" >
<svg>
<metadata>
Created by FontForge 20090622 at Fri Jun 10 09:16:04 2016
 By deploy user
Copyright (c) 1990-2002 ParaType, Inc. All Rights Reserved. ITC Officina Serif is a registered trade mark of International Typeface Corporation.
</metadata>
<defs>
<font id="OfficinaSerifMediumC" horiz-adv-x="528" >
  <font-face 
    font-family="OfficinaSerifMediumC"
    font-weight="500"
    font-stretch="normal"
    units-per-em="1000"
    panose-1="0 0 6 0 0 0 0 0 0 0"
    ascent="753"
    descent="-247"
    x-height="487"
    cap-height="685"
    bbox="-59.8 -247.13 917 905"
    underline-thickness="50"
    underline-position="-50"
    unicode-range="U+0020-U+F6D4"
  />
<missing-glyph horiz-adv-x="233" 
 />
    <glyph glyph-name=".notdef" horiz-adv-x="233" 
 />
    <glyph glyph-name=".null" horiz-adv-x="0" 
 />
    <glyph glyph-name="nonmarkingreturn" horiz-adv-x="333" 
 />
    <glyph glyph-name="space" unicode=" " horiz-adv-x="233" 
 />
    <glyph glyph-name="space" unicode="&#xa0;" horiz-adv-x="233" 
 />
    <glyph glyph-name="exclam" unicode="!" horiz-adv-x="353" 
d="M237 674l-22 -398q-1 -11 -4 -14t-14 -3h-44q-10 0 -13 3t-4 14l-23 398q-1 11 2 14.5t14 3.5h91q12 0 15 -3.5t2 -14.5zM254 58q0 -32 -22.5 -55.5t-54.5 -23.5t-54.5 23.5t-22.5 55.5t22.5 54.5t54.5 22.5t54.5 -22.5t22.5 -54.5z" />
    <glyph glyph-name="quotedbl" unicode="&#x22;" horiz-adv-x="385" 
d="M330 670l-16 -242q-1 -11 -4 -14.5t-14 -3.5h-41q-11 0 -13.5 3t-3.5 15l-16 242q-1 10 2.5 13t14.5 3h75q11 0 14 -2.5t2 -13.5zM164 670l-16 -242q-1 -11 -4 -14.5t-14 -3.5h-41q-11 0 -13 3t-3 15l-17 242q-1 10 2.5 13t15.5 3h74q11 0 14 -2.5t2 -13.5z" />
    <glyph glyph-name="numbersign" unicode="#" 
d="M483 442v-47q0 -11 -3 -14t-14 -3h-61l-19 -184h53q11 0 14 -3.5t3 -14.5v-44q0 -11 -3 -14t-14 -3h-61l-19 -179q-1 -16 -18 -16h-42q-12 0 -15 3.5t-1 14.5l19 177h-114l-19 -179q-1 -16 -18 -16h-41q-11 0 -14 3.5t-2 14.5l18 177h-49q-11 0 -14.5 3t-3.5 14v44
q0 11 3.5 14.5t14.5 3.5h58l19 184h-50q-11 0 -14.5 3t-3.5 14v47q0 11 3.5 14t14.5 3h59l19 183q1 10 4 13t13 3h42q11 0 14 -3.5t2 -14.5l-19 -181h114l20 183q1 10 4 13t13 3h41q18 0 17 -18l-19 -181h52q11 0 14 -3t3 -14zM329 378h-114l-18 -184h114z" />
    <glyph glyph-name="dollar" unicode="$" horiz-adv-x="533" 
d="M302 581v-207q40 -19 64.5 -34t50.5 -38.5t38.5 -54.5t12.5 -70q0 -74 -45.5 -125.5t-120.5 -62.5v-55q0 -11 -3 -14t-14 -3h-23q-11 0 -14 3t-3 14v52q-85 5 -159 40q-12 6 -13.5 10.5t2.5 14.5l21 59q5 15 24 5q69 -35 125 -40v223q-83 44 -106 63q-60 49 -60 128
q0 72 45 118.5t121 56.5v55q0 11 3.5 14t13.5 3h23q11 0 14 -3t3 -14v-52q77 -5 134 -36q12 -6 13.5 -12t-3.5 -16l-21 -51q-2 -6 -4.5 -8.5t-7.5 -1t-7 2.5t-9 5q-44 25 -95 31zM248 394v186q-71 -14 -71 -84q0 -33 16 -56t55 -46zM299 279v-204q34 8 52.5 33t18.5 62
q0 35 -16 60t-55 49z" />
    <glyph glyph-name="percent" unicode="%" horiz-adv-x="806" 
d="M763 167q0 -83 -38.5 -131t-106.5 -48q-67 0 -104 44t-37 124q0 83 39.5 131t106.5 48q65 0 102.5 -44.5t37.5 -123.5zM580 650l-278 -665q-6 -15 -20 -15h-45q-14 0 -16.5 5.5t2.5 16.5l277 664q5 13 19 13h47q14 0 16.5 -4.5t-2.5 -14.5zM329 490q0 -84 -38 -132
t-107 -48q-67 0 -103.5 44t-36.5 125q0 83 39 131t106 48q65 0 102.5 -45t37.5 -123zM683 163q0 109 -61 109q-31 0 -47.5 -29t-16.5 -82q0 -109 60 -109q65 0 65 111zM249 484q0 110 -61 110q-30 0 -47 -29.5t-17 -81.5q0 -109 60 -109q65 0 65 110z" />
    <glyph glyph-name="ampersand" unicode="&#x26;" horiz-adv-x="621" 
d="M589 25l-46 -37q-7 -6 -12 -6t-12 8l-58 65q-45 -40 -88.5 -56t-101.5 -16q-99 0 -158 50t-59 135q0 66 36 109.5t103 85.5q-51 60 -70 97.5t-19 75.5q0 71 53.5 118.5t133.5 47.5q74 0 119.5 -42.5t45.5 -111.5q0 -61 -34.5 -104t-97.5 -88l136 -157q7 12 12 27.5
t7.5 26.5t6.5 33.5t6 31.5q0 2 0.5 6t1 5.5t1.5 4t4 2t8 -0.5l62 -10q11 -1 11 -16q0 -39 -17 -90t-42 -89l67 -81q13 -14 1 -24zM359 541q0 37 -20.5 58.5t-55.5 21.5t-58.5 -22.5t-23.5 -56.5q0 -9 1 -17t4.5 -17l6 -15t8.5 -15.5t8.5 -14t10.5 -14l10.5 -12.5l11.5 -13.5
t11 -12.5q47 37 66.5 66t19.5 64zM402 122l-157 185q-46 -34 -64.5 -63t-18.5 -66q0 -49 33 -80t84 -31q68 0 123 55z" />
    <glyph glyph-name="quotesingle" unicode="'" horiz-adv-x="219" 
d="M164 670l-16 -242q-1 -11 -4 -14.5t-14 -3.5h-41q-11 0 -13 3t-3 15l-17 242q-1 10 2.5 13t15.5 3h74q11 0 14 -2.5t2 -13.5z" />
    <glyph glyph-name="parenleft" unicode="(" horiz-adv-x="417" 
d="M363 -215l-46 -30q-10 -7 -24 9q-188 227 -188 483q0 249 189 483q12 15 23 9l43 -24q14 -8 3 -24q-83 -124 -117 -214.5t-34 -229.5q0 -233 146 -436q15 -20 5 -26z" />
    <glyph glyph-name="parenright" unicode=")" horiz-adv-x="424" 
d="M64 715l45 24q10 5 21 -9q191 -236 191 -483q0 -253 -190 -483q-14 -16 -23 -9l-46 30q-10 6 5 26q147 205 147 436q0 138 -34.5 228t-118.5 216q-12 17 3 24z" />
    <glyph glyph-name="asterisk" unicode="*" horiz-adv-x="533" 
d="M429 589l14 -47q5 -11 4 -17t-14 -8l-120 -21l84 -88q8 -7 7.5 -12t-9.5 -12l-39 -29q-10 -8 -15.5 -8t-13.5 11l-58 106l-57 -106q-4 -8 -8.5 -10t-8 0t-12.5 8l-39 28q-15 10 -2 24l83 88l-118 22q-20 3 -12 25l16 47q4 12 10.5 13t15.5 -5l105 -50l-15 120
q-2 11 0.5 14.5t14.5 3.5h55q13 0 15 -6t-1 -17l-14 -116l105 51q9 6 16 5t11 -14z" />
    <glyph glyph-name="plus" unicode="+" 
d="M492 282v-55q0 -11 -3 -14t-14 -3h-166v-166q0 -11 -3 -14t-14 -3h-57q-11 0 -14 3.5t-3 13.5v166h-165q-11 0 -14 3t-3 14v55q0 11 3 14t14 3h165v167q0 11 3 13.5t14 2.5h57q11 0 14 -2.5t3 -13.5v-167h166q11 0 14 -3t3 -14z" />
    <glyph glyph-name="comma" unicode="," horiz-adv-x="311" 
d="M246 97l-116 -216q-6 -10 -9.5 -11.5t-12.5 2.5l-32 11l-7.5 3t-3 4t0 4.5t2.5 8.5l59 203q4 13 20 13h88q15 0 16.5 -6t-5.5 -16z" />
    <glyph glyph-name="hyphen" unicode="-" horiz-adv-x="375" 
d="M330 288v-64q0 -11 -2.5 -13.5t-13.5 -2.5h-251q-12 0 -15 2.5t-3 13.5v64q0 10 3.5 13t14.5 3h251q11 0 13.5 -2.5t2.5 -13.5z" />
    <glyph glyph-name="hyphen" unicode="&#xad;" horiz-adv-x="375" 
d="M330 288v-64q0 -11 -2.5 -13.5t-13.5 -2.5h-251q-12 0 -15 2.5t-3 13.5v64q0 10 3.5 13t14.5 3h251q11 0 13.5 -2.5t2.5 -13.5z" />
    <glyph glyph-name="period" unicode="." horiz-adv-x="306" 
d="M235 68q0 -34 -23.5 -58t-58.5 -24t-58.5 24t-23.5 58t24 58t58 24t58 -24t24 -58z" />
    <glyph glyph-name="slash" unicode="/" horiz-adv-x="444" 
d="M418 716l-356 -948q-5 -14 -20 -14h-52q-13 0 -15.5 5t2.5 15l357 949q6 15 21 15h51q14 0 15.5 -6t-3.5 -16z" />
    <glyph glyph-name="zero" unicode="0" horiz-adv-x="514" 
d="M478 338q0 -190 -59 -271q-59 -82 -165 -82q-105 0 -162 88t-57 250q0 185 72 274q61 75 157 75q94 0 148 -71q66 -87 66 -263zM373 323q0 147 -30 206q-28 54 -82 54q-120 0 -120 -256q0 -253 116 -253q65 0 91 63q25 61 25 186z" />
    <glyph glyph-name="one" unicode="1" horiz-adv-x="522" 
d="M432 64v-47q0 -11 -3.5 -14t-14.5 -3h-278q-11 0 -14.5 3t-3.5 14v47q0 11 3 14t14 3h98v450l-121 -66q-10 -5 -13.5 -4.5t-9.5 10.5l-19 33q-6 9 -5 13.5t10 10.5l183 128h61q11 0 14 -3t3 -14v-558h78q11 0 14.5 -3t3.5 -14z" />
    <glyph glyph-name="two" unicode="2" horiz-adv-x="514" 
d="M137 478l-55 19q-9 3 -9 12q0 17 20 55q57 108 179 108q86 0 135 -49.5t49 -136.5q0 -64 -28.5 -110t-97.5 -96q-64 -48 -81 -68q-31 -35 -39 -48q-18 -32 -22 -71h247q11 0 14.5 -3.5t3.5 -14.5v-58q0 -11 -3.5 -14t-14.5 -3h-347q-9 0 -11.5 2.5t-2.5 12.5v27
q1 80 30 139q38 76 151 158q60 44 80 73.5t20 73.5t-24 69t-66 25q-39 0 -63.5 -20.5t-43.5 -70.5q-4 -10 -8.5 -12t-12.5 1z" />
    <glyph glyph-name="three" unicode="3" horiz-adv-x="518" 
d="M127 526l-48 42q-9 8 2 21q66 83 169 83q82 0 132.5 -47t50.5 -123q0 -105 -98 -148q33 -11 62 -33q59 -48 59 -137q0 -88 -61.5 -143t-159.5 -55q-95 0 -164 37q-15 7 -11 18l19 57q3 10 14 7q3 1 16 -4q61 -29 120 -29q58 0 89.5 30.5t31.5 86.5q0 111 -134 111h-34
q-11 0 -14 3.5t-3 14.5v53q0 11 3 14.5t14 3.5h35q53 0 85 28t32 80q0 40 -24.5 65t-64.5 25q-30 0 -52 -13t-47 -42q-11 -13 -19 -6z" />
    <glyph glyph-name="four" unicode="4" horiz-adv-x="514" 
d="M488 201v-47q0 -11 -3 -14t-14 -3h-69v-136q0 -11 -2.5 -13.5t-13.5 -2.5h-67q-11 0 -14 2.5t-3 13.5v136h-251q-11 0 -13.5 2.5t-2.5 13.5v83l252 426q5 9 9 11t13 -2l61 -24q12 -5 14 -9t-4 -14l-250 -404h173l13 161q1 11 3.5 13.5t13.5 2.5h53q10 0 13 -3t3 -14v-161
h69q11 0 14 -2.5t3 -15.5z" />
    <glyph glyph-name="five" unicode="5" horiz-adv-x="516" 
d="M192 566l-19 -178q8 6 20 12q41 23 91 23q82 0 132 -55.5t50 -147.5q0 -111 -66.5 -177t-178.5 -66q-65 0 -139 24q-10 4 -12 7t0 13l12 62q3 13 25 5q60 -19 113 -19q70 0 109 39.5t39 109.5q0 57 -27.5 88t-76.5 31q-60 0 -109 -53q-7 -7 -18 -4l-53 16q-10 3 -9 21
l31 323q1 11 4 13.5t13 2.5h278q11 0 14 -3t3 -16v-54q0 -11 -3 -14t-14 -3h-209z" />
    <glyph glyph-name="six" unicode="6" horiz-adv-x="514" 
d="M439 641l-17 -62q-3 -9 -19 -4q-29 11 -59 11q-68 0 -113.5 -50t-62.5 -143q15 18 24 26q39 34 98 34q85 0 130.5 -65t45.5 -164q0 -107 -57 -173t-148 -66q-98 0 -149.5 73t-51.5 211q0 183 78 292.5t208 109.5q64 0 89 -19q5 -4 4 -11zM365 225q0 67 -25.5 103.5
t-72.5 36.5q-48 0 -73 -36t-25 -102q0 -75 24.5 -115.5t70.5 -40.5q47 0 74 40.5t27 113.5z" />
    <glyph glyph-name="seven" unicode="7" horiz-adv-x="514" 
d="M457 608l-230 -609q-4 -9 -7.5 -10.5t-13.5 0.5l-64 11q-11 2 -12 6t3 14l208 542h-252q-11 0 -14 2.5t-3 13.5v61q0 11 3 14t14 3h350q11 0 14.5 -3t3.5 -14v-31z" />
    <glyph glyph-name="eight" unicode="8" horiz-adv-x="514" 
d="M479 171q0 -70 -46 -121q-61 -67 -177 -67q-101 0 -161 50.5t-60 135.5q0 53 29 94q36 53 116 82q-51 21 -76 49q-41 44 -41 109q0 74 54.5 121.5t140.5 47.5t141 -46.5t55 -118.5q0 -28 -12 -61q-22 -57 -103 -99q65 -26 102.5 -71t37.5 -105zM351 497q0 41 -25.5 65
t-68.5 24q-42 0 -67.5 -24t-25.5 -63q0 -42 25.5 -66.5t71.5 -47.5q28 12 47 25q43 30 43 87zM372 172q0 32 -13 55q-14 24 -38 40.5t-68 34.5q-42 -19 -58 -30q-56 -37 -56 -100q0 -46 33 -74.5t86 -28.5q51 0 82.5 29t31.5 74z" />
    <glyph glyph-name="nine" unicode="9" horiz-adv-x="514" 
d="M94 12l10 61q2 11 18 7q33 -8 65 -8q136 0 172 195q-14 -16 -18 -20q-42 -44 -105 -44q-67 0 -113 44q-63 60 -63 188q0 107 56 172t148 65q98 0 149 -72t51 -213q0 -184 -74 -292.5t-199 -108.5q-54 0 -90 13q-8 3 -7 13zM356 438q0 70 -24.5 107.5t-70.5 37.5
q-47 0 -74 -39t-27 -108t26 -107.5t72 -38.5q98 0 98 148z" />
    <glyph glyph-name="colon" unicode=":" horiz-adv-x="306" 
d="M235 406q0 -34 -23.5 -58t-58.5 -24t-58.5 24t-23.5 58q0 35 24 59t58 24t58 -24t24 -59zM235 68q0 -34 -23.5 -58t-58.5 -24t-58.5 24t-23.5 58t24 58t58 24t58 -24t24 -58z" />
    <glyph glyph-name="semicolon" unicode=";" horiz-adv-x="310" 
d="M251 406q0 -34 -24 -58t-59 -24q-34 0 -58 24t-24 58t24 58.5t58 24.5t58.5 -24.5t24.5 -58.5zM238 99l-117 -218q-5 -10 -8.5 -11.5t-12.5 2.5l-31 11q-16 5 -11 20l61 203q4 13 19 13h89q13 0 15 -4.5t-4 -15.5z" />
    <glyph glyph-name="less" unicode="&#x3c;" horiz-adv-x="524" 
d="M485 166v-66q0 -10 -3 -12t-13 3l-413 200q-15 7 -16 14q-1 3 -1 8v57q0 10 3 13.5t14 8.5l413 200q10 5 13 3t3 -12v-67q0 -11 -2.5 -14t-13.5 -8l-324 -153l324 -153q11 -5 13.5 -8t2.5 -14z" />
    <glyph glyph-name="equal" unicode="=" horiz-adv-x="524" 
d="M485 461v-54q0 -11 -2.5 -13.5t-13.5 -2.5h-413q-11 0 -14 2.5t-3 13.5v54q0 11 3 14t14 3h413q11 0 13.5 -3t2.5 -14zM485 295v-53q0 -12 -2.5 -15t-13.5 -3h-413q-11 0 -14 3.5t-3 14.5v53q0 11 3 14t14 3h413q11 0 13.5 -3t2.5 -14z" />
    <glyph glyph-name="greater" unicode="&#x3e;" horiz-adv-x="524" 
d="M485 370v-57q0 -7 -2 -11t-4.5 -5.5t-10.5 -5.5l-413 -200q-10 -5 -13 -3t-3 12v67q0 11 2.5 14t13.5 8l324 152l-324 153q-10 5 -13 8.5t-3 14.5v66q0 10 3 12t13 -3l413 -200q11 -5 14 -8.5t3 -13.5z" />
    <glyph glyph-name="question" unicode="?" horiz-adv-x="468" 
d="M75 588l-19 54q-3 11 -1 16t14 10q73 34 153 34q86 0 136 -46.5t50 -125.5q0 -74 -41 -114t-117 -62v-79q0 -11 -3.5 -14.5t-14.5 -3.5h-55q-11 0 -14.5 3.5t-3.5 14.5v124q0 10 4 14t16 7q69 18 98 43t29 67q0 39 -25.5 60t-72.5 21q-45 0 -115 -29q-13 -7 -18 6z
M285 58q0 -32 -22.5 -55.5t-54.5 -23.5t-55 23.5t-23 55.5t23 54.5t55 22.5t54.5 -22.5t22.5 -54.5z" />
    <glyph glyph-name="at" unicode="@" horiz-adv-x="982" 
d="M793 -36l17 -46q5 -13 -14 -22q-58 -32 -147.5 -52t-176.5 -20q-181 0 -284 93.5t-103 267.5q0 200 139 338.5t339 138.5q152 0 247.5 -78t95.5 -223q0 -127 -77 -219.5t-184 -92.5q-82 0 -90 81q-59 -81 -128 -81q-41 0 -64.5 31.5t-23.5 87.5q0 55 18 112.5t61 103.5
t100 46q49 0 81 -36q1 1 4.5 10.5t5.5 10.5q5 5 10 5h52q12 0 7 -18l-47 -219q-2 -9 -2 -28q0 -39 40 -39q64 0 111 71.5t47 168.5q0 110 -71.5 172.5t-196.5 62.5q-169 0 -279.5 -117t-110.5 -289q0 -143 82 -217t226 -74q88 0 156 18.5t143 52.5q14 7 17 -1zM559 240
l21 96q-32 29 -60 29q-24 0 -44 -23.5t-30 -57t-15.5 -64t-5.5 -52.5q0 -48 32 -48q35 0 63 33.5t39 86.5z" />
    <glyph glyph-name="A" unicode="A" horiz-adv-x="584" 
d="M588 66v-52q0 -14 -14 -14h-210q-8 0 -11 3t-3 11v52q0 8 3 11t11 3h49l-31 113h-189l-31 -113h52q15 0 15 -14v-52q0 -14 -15 -14h-204q-8 0 -10.5 3t-2.5 11v52q0 8 2.5 11t10.5 3h41l182 595q3 9 5.5 10t12.5 1h81q10 0 13 -2t6 -12l180 -592h43q14 0 14 -14zM361 274
l-51 196q-4 17 -8 37l-8.5 44t-7.5 37q-13 -78 -22 -115l-53 -199h150z" />
    <glyph glyph-name="B" unicode="B" horiz-adv-x="580" 
d="M55 686h231q74 0 109.5 -9t60.5 -35q46 -46 46 -126q0 -109 -101 -157q58 -14 91.5 -59t33.5 -109q0 -65 -34.5 -114.5t-88.5 -64.5q-42 -12 -122 -12h-226q-10 0 -12.5 2.5t-2.5 12.5v49q0 10 2.5 13t12.5 3h58v525h-58q-10 0 -12.5 3t-2.5 13v49q0 10 2.5 13t12.5 3z
M218 391h51q64 0 93 27t29 87q0 52 -24.5 75t-81.5 23h-67v-212zM218 87h67q67 0 97.5 26t30.5 83q0 112 -130 112h-65v-221z" />
    <glyph glyph-name="C" unicode="C" horiz-adv-x="506" 
d="M465 177v-129q0 -10 -11 -19q-24 -19 -69.5 -31.5t-91.5 -12.5q-58 0 -102 21t-71 55t-44 82t-23 96.5t-6 104.5q0 176 62.5 266.5t183.5 90.5q45 0 89 -13.5t67 -34.5q9 -9 9 -19v-123q0 -15 -15 -15h-59q-14 0 -14 15v82q-43 18 -73 18q-64 0 -92 -41q-45 -66 -43 -227
q1 -134 39 -206q31 -62 104 -62q33 0 71 17v85q0 13 15 13h59q15 0 15 -13z" />
    <glyph glyph-name="D" unicode="D" horiz-adv-x="599" 
d="M55 686h216q72 0 108.5 -8.5t66.5 -32.5q105 -82 105 -297q0 -174 -63 -261t-214 -87h-219q-10 0 -12.5 2.5t-2.5 12.5v49q0 10 2.5 13t12.5 3h58v525h-58q-10 0 -12.5 3t-2.5 13v49q0 10 2.5 13t12.5 3zM221 88h50q92 0 129 58t37 200q0 106 -20 162.5t-66 75.5
q-30 13 -84 13h-46v-509z" />
    <glyph glyph-name="E" unicode="E" horiz-adv-x="510" 
d="M466 171v-155q0 -11 -3 -13.5t-15 -2.5h-393q-10 0 -12.5 2.5t-2.5 12.5v49q0 10 2.5 13t12.5 3h58v525h-58q-10 0 -12.5 3t-2.5 13v49q0 10 2.5 13t12.5 3h390q9 0 12 -3t3 -13v-145q0 -15 -14 -15h-57q-15 0 -15 15v72h-153v-197h184q11 0 14 -3t3 -14v-53
q0 -10 -3 -13t-14 -3h-184v-226h159v83q0 8 3 11t11 3h56q16 0 16 -14z" />
    <glyph glyph-name="F" unicode="F" horiz-adv-x="482" 
d="M461 670v-145q0 -15 -15 -15h-57q-14 0 -14 15v72h-154v-200h184q11 0 14 -3t3 -14v-53q0 -11 -3 -14t-14 -3h-184v-230h71q10 0 12.5 -3t2.5 -13v-49q0 -10 -2.5 -12.5t-12.5 -2.5h-237q-10 0 -12.5 2.5t-2.5 12.5v49q0 10 2.5 13t12.5 3h58v525h-58q-10 0 -12.5 3
t-2.5 13v49q0 10 2.5 13t12.5 3h390q10 0 13 -3t3 -13z" />
    <glyph glyph-name="G" unicode="G" horiz-adv-x="572" 
d="M558 338v-51q0 -8 -3 -11t-11 -3h-54v-223q0 -9 -3 -12.5t-13 -9.5q-70 -43 -173 -43q-253 0 -253 352q0 178 64.5 271t188.5 93q47 0 91.5 -13t70.5 -34q11 -9 11 -21v-122q0 -15 -14 -15h-60q-14 0 -14 15v83q-46 21 -81 21q-73 0 -108 -64.5t-35 -200.5
q0 -36 1.5 -63.5t6.5 -62t15 -59.5t26 -47t41 -33.5t58 -11.5q39 0 78 18v182h-76q-11 0 -14.5 3t-3.5 14v46q0 11 3.5 14.5t14.5 3.5h232q14 0 14 -16z" />
    <glyph glyph-name="H" unicode="H" horiz-adv-x="667" 
d="M627 64v-49q0 -10 -2.5 -12.5t-12.5 -2.5h-223q-10 0 -13 2.5t-3 12.5v49q0 10 3 13t13 3h56v232h-224v-232h57q10 0 12.5 -3t2.5 -13v-49q0 -10 -2.5 -12.5t-12.5 -2.5h-223q-10 0 -12.5 2.5t-2.5 12.5v49q0 10 2.5 13t12.5 3h58v525h-58q-10 0 -12.5 3t-2.5 13v49
q0 10 2.5 13t12.5 3h223q10 0 12.5 -3t2.5 -13v-49q0 -10 -2.5 -13t-12.5 -3h-57v-206h224v206h-55q-10 0 -13.5 3t-3.5 13v49q0 10 3.5 13t13.5 3h222q10 0 12.5 -3t2.5 -13v-49q0 -10 -2.5 -13t-12.5 -3h-58v-525h58q10 0 12.5 -3t2.5 -13z" />
    <glyph glyph-name="I" unicode="I" horiz-adv-x="362" 
d="M324 63v-47q0 -11 -3 -13.5t-15 -2.5h-252q-11 0 -13.5 2.5t-2.5 13.5v47q0 11 2.5 14t13.5 3h72v525h-72q-11 0 -13.5 3t-2.5 14v47q0 11 2.5 14t13.5 3h252q11 0 14.5 -3t3.5 -14v-47q0 -11 -3.5 -14t-14.5 -3h-72v-525h72q11 0 14.5 -3t3.5 -14z" />
    <glyph glyph-name="J" unicode="J" horiz-adv-x="456" 
d="M378 669v-439q0 -94 -10 -130q-12 -39 -38 -66q-47 -49 -141 -49q-90 0 -133 53t-43 139v6q0 8 0.5 10.5t2.5 4t8 1.5h78q9 0 9 -15q0 -112 80 -112q14 0 26 2.5t20 8.5t14 11.5t9.5 17t6 18t3 21t0.5 21v23v21.5v388h-156q-11 0 -13.5 2.5t-2.5 13.5v49q0 11 2.5 14
t13.5 3h248q11 0 13.5 -3t2.5 -14z" />
    <glyph glyph-name="K" unicode="K" horiz-adv-x="593" 
d="M591 66v-52q0 -8 -3 -11t-11 -3h-202q-15 0 -15 14v52q0 8 3 11t11 3h30l-183 236v-236h53q10 0 13.5 -3t3.5 -13v-49q0 -9 -4 -12t-14 -3h-218q-10 0 -12.5 2.5t-2.5 12.5v49q0 10 2.5 13t12.5 3h58v525h-58q-10 0 -12.5 3t-2.5 13v49q0 10 2.5 13t12.5 3h221
q10 0 12.5 -3t2.5 -13v-49q0 -10 -2.5 -13t-12.5 -3h-55v-244l181 244h-29q-15 0 -15 15v52q0 14 15 14h195q8 0 11 -3t3 -11v-52q0 -15 -14 -15h-47l-199 -259l213 -266h42q8 0 11 -3t3 -11z" />
    <glyph glyph-name="L" unicode="L" horiz-adv-x="501" 
d="M501 154l-41 -141q-4 -13 -19 -13h-386q-10 0 -12.5 2.5t-2.5 12.5v49q0 10 2.5 13t12.5 3h58v525h-58q-10 0 -12.5 3t-2.5 13v49q0 10 2.5 13t12.5 3h226q10 0 12.5 -3t2.5 -13v-49q0 -10 -2.5 -13t-12.5 -3h-60v-517h164l25 90q3 10 6.5 11.5t13.5 -1.5l62 -16
q13 -3 9 -18z" />
    <glyph glyph-name="M" unicode="M" horiz-adv-x="732" 
d="M703 66v-52q0 -8 -3 -11t-11 -3h-215q-8 0 -11 3t-3 11v52q0 8 3 11t11 3h59l-9 338q-2 51 0 138q-11 -59 -37 -138l-84 -249q-3 -9 -6 -11.5t-12 -2.5h-44q-9 0 -12 2.5t-6 12.5l-77 248q-31 102 -36 137q1 -31 -1 -136l-10 -339h59q8 0 11 -3t3 -11v-52q0 -8 -3 -11
t-11 -3h-210q-8 0 -11 3t-3 11v52q0 8 3 11t11 3h53l27 525h-61q-15 0 -15 15v52q0 14 15 14h159q10 0 13.5 -2t6.5 -11l99 -300q13 -41 21 -91q9 48 24 92l103 299q5 13 19 13h158q16 0 16 -14v-52q0 -15 -16 -15h-60l28 -525h51q8 0 11 -3t3 -11z" />
    <glyph glyph-name="N" unicode="N" horiz-adv-x="621" 
d="M608 670v-49q0 -10 -3.5 -13t-13.5 -3h-57v-589q0 -11 -3 -13.5t-14 -2.5h-60q-14 0 -20 11l-208 419q-24 48 -44 112q7 -49 7 -107v-355h58q10 0 12.5 -3t2.5 -13v-49q0 -10 -2.5 -12.5t-12.5 -2.5h-209q-10 0 -13 2.5t-3 12.5v49q0 10 3 13t13 3h58v525h-58
q-10 0 -13 3t-3 13v49q0 10 3 13t13 3h147q14 0 20 -12l193 -388q27 -54 44 -111q-5 36 -5 105v325h-58q-10 0 -13 3t-3 13v49q0 10 3 13t13 3h209q10 0 13.5 -3t3.5 -13z" />
    <glyph glyph-name="O" unicode="O" horiz-adv-x="569" 
d="M521 348q0 -180 -61 -271.5t-180 -91.5q-233 0 -233 362q0 67 10.5 124.5t35.5 112t75 86t120 31.5q233 0 233 -353zM405 341q0 148 -34 217q-29 57 -86 57q-63 0 -93 -66.5t-30 -205.5q0 -146 34 -215q28 -57 88 -57q63 0 92 65t29 205z" />
    <glyph glyph-name="P" unicode="P" 
d="M55 686h234q65 0 100.5 -8.5t60.5 -30.5q58 -52 58 -146q0 -105 -60 -162t-160 -57h-67v-202h71q10 0 12.5 -3t2.5 -13v-49q0 -10 -2.5 -12.5t-12.5 -2.5h-237q-10 0 -12.5 2.5t-2.5 12.5v49q0 10 2.5 13t12.5 3h58v525h-58q-10 0 -12.5 3t-2.5 13v49q0 10 2.5 13t12.5 3
zM221 373h51q65 0 96.5 27.5t31.5 93.5q0 61 -25.5 84.5t-92.5 23.5h-61v-229z" />
    <glyph glyph-name="Q" unicode="Q" horiz-adv-x="569" 
d="M554 -28l-58 -41q-10 -7 -16 -7q-12 0 -42 23t-62 57q-41 -19 -94 -19q-235 0 -235 356q0 79 12.5 142.5t40 113.5t74.5 77t112 27q235 0 235 -352q0 -193 -70 -286q34 -31 99 -73q17 -10 4 -18zM405 341q0 39 -1.5 68t-8 70.5t-18.5 68.5t-35.5 47t-56.5 20
q-123 0 -123 -274q0 -270 121 -270q63 0 92.5 64.5t29.5 205.5z" />
    <glyph glyph-name="R" unicode="R" horiz-adv-x="575" 
d="M580 66v-52q0 -14 -14 -14h-116q-10 0 -13.5 2t-7.5 10l-146 285h-63v-217h59q10 0 12.5 -3t2.5 -13v-49q0 -10 -2.5 -12.5t-12.5 -2.5h-224q-10 0 -12.5 2.5t-2.5 12.5v49q0 10 2.5 13t12.5 3h58v525h-58q-10 0 -12.5 3t-2.5 13v49q0 10 2.5 13t12.5 3h234q63 0 97.5 -8
t60.5 -30q60 -50 60 -144q0 -139 -123 -191l132 -233h50q14 0 14 -14zM220 379h54q65 0 94 28t29 91q0 58 -25.5 81.5t-90.5 23.5h-61v-224z" />
    <glyph glyph-name="S" unicode="S" horiz-adv-x="501" 
d="M256 417l83 -46q117 -65 117 -184q0 -89 -59 -144.5t-155 -55.5t-171 36q-25 12 -25 28v134q0 15 15 15h59q15 0 15 -15v-82q65 -24 107 -24q49 0 76.5 26t27.5 72q0 39 -16 60.5t-71 51.5l-98 54q-106 59 -106 167q0 86 57 137.5t152 51.5q46 0 91.5 -11.5t69.5 -29.5
q11 -8 11 -19v-126q0 -14 -14 -14h-60q-14 0 -14 14v80q-47 16 -83 16q-47 0 -74 -23t-27 -64q0 -33 18.5 -53.5t73.5 -51.5z" />
    <glyph glyph-name="T" unicode="T" horiz-adv-x="464" 
d="M459 670v-178q0 -15 -15 -15h-52q-15 0 -15 15v107h-89v-519h69q10 0 13 -3t3 -13v-49q0 -10 -3 -12.5t-13 -2.5h-246q-10 0 -13.5 3t-3.5 12v49q0 10 3.5 13t13.5 3h69v519h-90v-107q0 -15 -14 -15h-51q-16 0 -16 15v179q0 9 3.5 12t13.5 3h417q16 0 16 -16z" />
    <glyph glyph-name="U" unicode="U" horiz-adv-x="649" 
d="M626 670v-49q0 -10 -3 -13t-13 -3h-58v-402q0 -108 -61 -163t-173 -55q-115 0 -167 55.5t-52 167.5v397h-58q-10 0 -12.5 3t-2.5 13v49q0 10 2.5 13t12.5 3h223q10 0 13.5 -3t3.5 -13v-49q0 -10 -3.5 -13t-13.5 -3h-57v-396q0 -76 26 -106.5t90 -30.5q65 0 95 33t30 103
v397h-57q-10 0 -13.5 3t-3.5 13v49q0 10 3.5 13t13.5 3h219q10 0 13 -3t3 -13z" />
    <glyph glyph-name="V" unicode="V" horiz-adv-x="554" 
d="M558 672v-52q0 -15 -13 -15h-41l-164 -598q-2 -9 -5.5 -11t-13.5 -2h-91h-8t-4.5 1.5t-3.5 4t-2 7.5l-162 598h-40q-14 0 -14 15v52q0 14 14 14h193q15 0 15 -14v-52q0 -15 -14 -15h-41l89 -383q15 -63 24 -125q9 56 26 126l93 382h-38q-14 0 -14 15v52q0 14 15 14h187
q8 0 10.5 -3t2.5 -11z" />
    <glyph glyph-name="W" unicode="W" horiz-adv-x="766" 
d="M770 672v-52q0 -15 -14 -15h-40l-131 -596q-2 -9 -5.5 -11.5t-13.5 -2.5h-76q-11 0 -13.5 2t-3.5 12l-62 350q-20 109 -27 184q-11 -89 -32 -185l-73 -349q-2 -10 -5 -12t-13 -2h-75q-10 0 -13 2t-5 12l-118 597l-40 -1q-14 0 -14 15v52q0 8 3 11t11 3h183q8 0 11 -3
t3 -11v-52q0 -15 -14 -15h-39l62 -341q8 -41 14 -147q7 78 19 133l88 420q2 10 5.5 13t13.5 3h65q8 0 11.5 -1.5t4.5 -4t2 -10.5l78 -419q12 -65 18 -138q10 103 20 164l61 328h-39q-15 0 -15 15v52q0 14 15 14h179q8 0 11 -3t3 -11z" />
    <glyph glyph-name="X" unicode="X" horiz-adv-x="547" 
d="M551 66v-51q0 -15 -13 -15h-204q-14 0 -14 15v51q0 14 13 14h36l-70 133q-14 27 -26 58q-15 -39 -26 -59l-70 -132h35q14 0 14 -14v-51q0 -15 -14 -15h-204q-14 0 -14 15v51q0 14 14 14h49l157 280l-140 245h-50q-15 0 -15 15v52q0 14 15 14h201q15 0 15 -14v-52
q0 -15 -15 -15h-34l60 -113q8 -16 23 -52q19 51 22 58l56 107h-34q-15 0 -15 15v52q0 14 16 14h201q14 0 14 -14v-52q0 -15 -14 -15h-52l-138 -245l158 -280h50q13 0 13 -14z" />
    <glyph glyph-name="Y" unicode="Y" horiz-adv-x="527" 
d="M531 672v-52q0 -15 -13 -15h-37l-163 -319v-206h70q10 0 13.5 -3t3.5 -13v-49q0 -9 -3.5 -12t-13.5 -3h-248q-10 0 -12.5 2.5t-2.5 12.5v49q0 10 3 13t13 3h69v205l-167 320h-32q-15 0 -15 15v52q0 14 15 14h184q8 0 11 -3t3 -11v-52q0 -15 -13 -15h-30l70 -146
q8 -17 18.5 -44.5l13.5 -35.5q15 49 35 92l64 134h-34q-14 0 -14 15v52q0 14 15 14h184q8 0 10.5 -3t2.5 -11z" />
    <glyph glyph-name="Z" unicode="Z" horiz-adv-x="488" 
d="M475 146l-38 -134q-3 -9 -5 -10.5t-12 -1.5h-370q-10 0 -12.5 2.5t-2.5 12.5v68l287 515h-183v-80q0 -8 -2.5 -10.5t-10.5 -2.5h-59q-8 0 -11 2.5t-3 10.5v153q0 15 16 15h353q11 0 14 -3t3 -14v-69l-285 -509h210l23 79q3 9 6 10.5t10 -0.5l63 -16q13 -3 9 -18z" />
    <glyph glyph-name="bracketleft" unicode="[" horiz-adv-x="408" 
d="M346 -140v-47q0 -11 -3 -14.5t-14 -3.5h-184q-11 0 -14.5 3.5t-3.5 14.5v885q0 11 3.5 14t14.5 3h184q11 0 14 -3t3 -14v-48q0 -11 -3 -14t-14 -3h-100v-755h100q11 0 14 -3t3 -15z" />
    <glyph glyph-name="backslash" unicode="\" horiz-adv-x="529" 
d="M140 758l331 -824q5 -10 3 -14.5t-14 -4.5h-62q-17 0 -22 14l-331 823q-4 10 -2 14.5t14 4.5h62q15 0 21 -13z" />
    <glyph glyph-name="bracketright" unicode="]" horiz-adv-x="408" 
d="M281 698v-885q0 -11 -3 -14.5t-14 -3.5h-185q-11 0 -13.5 3t-2.5 15v47q0 12 2.5 15t13.5 3h101v755h-101q-11 0 -13.5 3t-2.5 14v48q0 11 2.5 14t13.5 3h185q11 0 14 -3t3 -14z" />
    <glyph glyph-name="asciicircum" unicode="^" horiz-adv-x="531" 
d="M343 672l158 -292q4 -7 4 -10.5t-3 -5t-10 -1.5h-74q-10 0 -13 2.5t-9 13.5l-127 231l-126 -231q-6 -11 -9 -13.5t-14 -2.5h-74q-10 0 -11.5 3.5t3.5 13.5l157 292q8 14 14 16q3 1 9 1h103q10 0 13 -3t9 -14z" />
    <glyph glyph-name="underscore" unicode="_" horiz-adv-x="524" 
d="M519 -136h-514v68h514v-68z" />
    <glyph glyph-name="grave" unicode="`" horiz-adv-x="513" 
d="M306 591l-14 -24q-5 -9 -9 -9q-2 0 -12 5l-170 77q-12 5 -12 11q0 3 5 13l29 51q6 10 13 10q6 0 16 -7l149 -102q10 -6 10 -12q0 -3 -5 -13z" />
    <glyph glyph-name="a" unicode="a" horiz-adv-x="491" 
d="M471 65v-53q0 -12 -13 -12h-105q-13 0 -20.5 9.5t-14.5 37.5q-59 -58 -136 -58q-64 0 -102 38.5t-38 104.5q0 173 261 171v32q0 46 -17.5 64.5t-62.5 18.5q-46 0 -114 -28q-14 -6 -18 5l-17 51q-3 9 -0.5 12.5t11.5 8.5q70 35 153 35q163 0 163 -148v-184q0 -59 10 -93
h47q13 0 13 -12zM303 112v119q-25 0 -42 -1.5t-42 -7t-40 -14.5t-26.5 -27t-11.5 -43q0 -32 19.5 -53t48.5 -21q45 0 94 48z" />
    <glyph glyph-name="b" unicode="b" 
d="M187 706v-250q69 47 128 47q166 0 166 -237q0 -42 -4.5 -79.5t-18 -75.5t-34.5 -65t-56 -44t-81 -17q-36 0 -61.5 10t-55.5 36q-7 -15 -17 -32q-6 -10 -10.5 -11.5t-12.5 2.5l-64 23q-10 4 -3 15q23 37 23 105v507h-57q-13 0 -13 12v53q0 12 13 12h147q11 0 11 -11z
M187 377v-280q37 -30 82 -30q108 0 108 190q0 85 -21.5 123.5t-69.5 38.5q-23 0 -43.5 -9t-55.5 -33z" />
    <glyph glyph-name="c" unicode="c" horiz-adv-x="431" 
d="M375 94l22 -54q6 -13 -6 -20q-60 -35 -140 -35q-98 0 -151.5 65t-53.5 183q0 125 58.5 197.5t159.5 72.5q76 0 123 -32q10 -6 10 -19v-111q0 -13 -12 -13h-60q-12 0 -12 13v66q-30 12 -48 12q-111 0 -111 -177q0 -89 26.5 -131t82.5 -42q47 0 97 28q12 6 15 -3z" />
    <glyph glyph-name="d" unicode="d" horiz-adv-x="538" 
d="M515 65v-53q0 -12 -13 -12h-112q-4 0 -7 1t-5.5 2.5t-4.5 4.5t-3.5 5t-3 7t-2 7l-2 8t-2.5 8q-76 -58 -147 -58q-39 0 -69 16t-48 41t-29.5 59t-16 67t-4.5 68q0 51 8.5 95t28.5 84.5t58 64t92 23.5q52 0 108 -31v168h-61q-13 0 -13 12v53q0 12 13 12h150q8 0 10 -2.5
t2 -9.5v-538q0 -58 11 -90h49q13 0 13 -12zM341 114v279q-46 25 -89 25q-56 0 -79 -38t-23 -133q0 -96 21 -137.5t69 -41.5q54 0 101 46z" />
    <glyph glyph-name="e" unicode="e" horiz-adv-x="482" 
d="M407 100l22 -49q7 -14 -11 -25q-66 -41 -156 -41q-102 0 -159 67.5t-57 188.5q0 119 57 190.5t151 71.5q92 0 141.5 -64t49.5 -184q0 -21 -2.5 -29t-14.5 -8h-278q6 -148 121 -148q21 0 41 4.5t29 7.5t29.5 13l22.5 11q10 5 14 -6zM152 295h186q-3 131 -89 131
q-45 0 -68.5 -31.5t-28.5 -99.5z" />
    <glyph glyph-name="f" unicode="f" horiz-adv-x="355" 
d="M377 682l-17 -57q-4 -12 -19 -4q-33 18 -68 18t-46.5 -18.5t-11.5 -73.5v-60h133q9 0 10.5 -3.5t-0.5 -9.5l-16 -53q-3 -12 -15 -12h-112v-332h73q13 0 13 -12v-53q0 -12 -13 -12h-237q-12 0 -12 12v53q0 12 12 12h63v332h-72q-9 0 -11 2t-2 11v52q0 9 2.5 11t12.5 2h70
v60q0 59 10 90t38 54q39 33 101 33q33 0 65.5 -8.5t46.5 -19.5q5 -5 2 -14z" />
    <glyph glyph-name="g" unicode="g" horiz-adv-x="519" 
d="M395 505l62 -30q9 -5 3 -17q-26 -46 -26 -112v-153q0 -13 3 -136q2 -58 2 -88q0 -88 -46.5 -133.5t-137.5 -45.5q-100 0 -177 41q-13 7 -9 20l20 56q5 13 18 6q72 -37 141 -37q51 0 71.5 22t20.5 76q0 24 -2 82q-62 -47 -129 -47q-76 0 -119.5 61.5t-43.5 170.5
q0 125 49.5 193.5t139.5 68.5q63 0 120 -44q11 28 20 40q8 11 20 6zM334 135v253q-43 29 -83 29q-102 0 -102 -163q0 -83 20.5 -121.5t64.5 -38.5q52 0 100 41z" />
    <glyph glyph-name="h" unicode="h" horiz-adv-x="565" 
d="M539 65v-53q0 -12 -13 -12h-141q-9 0 -12 2.5t-3 11.5v320q0 47 -14 66t-48 19q-48 0 -109 -53v-289h55q12 0 12 -12v-53q0 -12 -12 -12h-210q-12 0 -12 12v53q0 12 12 12h54v563h-58q-12 0 -12 12v53q0 12 12 12h147q12 0 12 -12v-265q66 63 145 63q74 0 101 -39.5
t27 -114.5v-272h54q13 0 13 -12z" />
    <glyph glyph-name="i" unicode="i" horiz-adv-x="306" 
d="M233 648q0 -29 -21 -50t-50 -21q-30 0 -51 21t-21 50q0 30 21 51t51 21q29 0 50 -21.5t21 -50.5zM297 65v-53q0 -12 -12 -12h-240q-12 0 -12 12v53q0 12 12 12h70v332h-71q-10 0 -12 2.5t-2 12.5v48q0 10 2.5 12.5t12.5 2.5h156q10 0 12.5 -2.5t2.5 -12.5v-395h69
q12 0 12 -12z" />
    <glyph glyph-name="j" unicode="j" horiz-adv-x="292" 
d="M230 648q0 -30 -21 -50.5t-50 -20.5q-30 0 -51 21t-21 50q0 30 21.5 51t50.5 21t50 -21t21 -51zM215 472v-501q0 -35 -1.5 -56t-11.5 -49.5t-29 -47.5q-41 -41 -117 -41q-57 0 -106 22q-14 6 -8 20l21 58q4 9 15 4q40 -19 72 -19q40 0 51.5 27t11.5 92v428h-78
q-9 0 -11.5 2.5t-2.5 12.5v48q0 11 2.5 13t13.5 2h164q9 0 11.5 -2.5t2.5 -12.5z" />
    <glyph glyph-name="k" unicode="k" horiz-adv-x="538" 
d="M526 65v-53q0 -12 -12 -12h-109q-11 0 -18 8l-188 237v-168h52q12 0 12 -12v-53q0 -8 -2.5 -10t-9.5 -2h-207q-12 0 -12 12v53q0 12 12 12h54v563h-58q-12 0 -12 12v53q0 12 12 12h147q12 0 12 -12v-426l143 133h-47q-12 0 -12 13v49q0 13 12 13h206q14 0 14 -13v-52
q0 -13 -14 -13h-52l-152 -138l166 -194h51q12 0 12 -12z" />
    <glyph glyph-name="l" unicode="l" horiz-adv-x="288" 
d="M267 80l18 -63q2 -5 2 -7t-2 -3.5t-7 -3.5q-36 -16 -86 -16q-28 0 -48.5 5.5t-33 19.5t-19.5 26t-10 36.5t-3.5 38.5t-0.5 44v483h-58q-12 0 -12 12v53q0 12 12 12h147q13 0 13 -12v-558q0 -40 6 -56t29 -16q18 0 39 9q11 4 14 -4z" />
    <glyph glyph-name="m" unicode="m" horiz-adv-x="797" 
d="M769 65v-53q0 -12 -14 -12h-138q-9 0 -11.5 2.5t-2.5 11.5v331q0 40 -12.5 57t-41.5 17q-38 0 -93 -42v-300h55q7 0 9.5 -3t2.5 -11v-51q0 -12 -12 -12h-141q-10 0 -11.5 2t-2.5 13v323q0 44 -12.5 62.5t-42.5 18.5q-38 0 -92 -43v-299h54q14 0 14 -12v-53q0 -12 -14 -12
h-209q-12 0 -12 12v53q0 12 12 12h55v267q0 38 -8 65h-53q-13 0 -13 13v52q0 13 13 13h118q4 0 7.5 -1t6 -4l4.5 -5.5t4 -8t3 -9l3 -10.5t3 -11q76 65 144 65q74 0 102 -65q80 65 149 65q35 0 58.5 -12t34 -35.5t14.5 -47.5t4 -59v-272h54q12 0 12 -12z" />
    <glyph glyph-name="n" unicode="n" horiz-adv-x="575" 
d="M548 65v-53q0 -12 -12 -12h-142q-9 0 -12 2.5t-3 11.5v321q0 44 -14 64t-45 20q-52 0 -109 -53v-289h53q14 0 14 -12v-53q0 -12 -14 -12h-210q-12 0 -12 12v53q0 12 12 12h55v259q0 43 -7 73h-54q-13 0 -13 13v52q0 13 13 13h121q7 0 11 -2t7 -8t4.5 -10t4 -15.5
t3.5 -17.5q45 38 80.5 53.5t77.5 15.5q66 0 95 -36t29 -118v-272h55q12 0 12 -12z" />
    <glyph glyph-name="o" unicode="o" horiz-adv-x="510" 
d="M463 244q0 -121 -56.5 -190t-154.5 -69t-152 68t-54 190q0 121 56.5 190.5t155.5 69.5q97 0 151 -68.5t54 -190.5zM355 247q0 174 -100 174q-101 0 -101 -174q0 -93 24.5 -137t76.5 -44t76 44t24 137z" />
    <glyph glyph-name="p" unicode="p" 
d="M34 487h116q4 0 7 -0.5t5.5 -3l4 -4t3.5 -6t3 -6.5t3.5 -9l3.5 -10q42 31 72 43t65 12q164 0 164 -250q0 -131 -45 -199.5t-130 -68.5q-56 0 -110 35v-145h59q12 0 12 -13v-51q0 -14 -12 -14h-215q-12 0 -12 14v51q0 13 12 13h54v458q0 47 -9 76h-51q-14 0 -14 13v52
q0 13 14 13zM196 375v-278q48 -30 89 -30q51 0 71.5 40.5t20.5 141.5q0 90 -19.5 130t-64.5 40q-39 0 -97 -44z" />
    <glyph glyph-name="q" unicode="q" horiz-adv-x="519" 
d="M508 -139v-50q0 -14 -13 -14h-215q-13 0 -13 14v51q0 13 13 13h58v158q-56 -48 -122 -48q-80 0 -125 66t-45 184q0 127 48.5 197.5t135.5 70.5q66 0 128 -48q14 31 16 34q12 20 28 13l58 -26q13 -5 3 -23q-23 -46 -23 -108v-470h55q13 0 13 -14zM338 114v267
q-47 34 -90 34q-98 0 -98 -175q0 -173 93 -173q47 0 95 47z" />
    <glyph glyph-name="r" unicode="r" horiz-adv-x="371" 
d="M370 474l-28 -68q-3 -9 -11 -6q-21 8 -35 8q-31 0 -85 -62v-269h58q13 0 13 -12v-53q0 -12 -13 -12h-215q-12 0 -12 12v53q0 12 12 12h55v237q0 59 -10 95h-51q-13 0 -13 13v52q0 13 13 13h110q13 0 21.5 -14t16.5 -51q23 28 35 40.5t36 26.5t51 14q26 0 47 -12
q9 -5 5 -17z" />
    <glyph glyph-name="s" unicode="s" horiz-adv-x="417" 
d="M215 297l98 -51q65 -34 65 -110q0 -68 -45 -109.5t-119 -41.5q-82 0 -156 38q-10 5 -10 15v101q0 13 14 13h55q7 0 9.5 -3t2.5 -12v-55q51 -16 81 -16q33 0 52 16.5t19 45.5q0 23 -14 37t-57 32q-88 37 -114 62q-39 37 -39 93q0 66 46.5 108.5t119.5 42.5q75 0 121 -29
q12 -8 12 -17v-96q0 -13 -13 -13h-55q-12 0 -12 13v52q-36 10 -53 10q-34 0 -52 -15.5t-18 -43.5q0 -21 13 -34.5t49 -32.5z" />
    <glyph glyph-name="t" unicode="t" horiz-adv-x="343" 
d="M330 85l13 -52q3 -9 1 -13t-11 -8q-54 -25 -119 -25q-74 0 -101.5 38.5t-27.5 112.5v272h-70q-10 0 -12 2.5t-2 11.5v49q0 9 2 11.5t12 2.5h70v132q0 12 14 15l67 13q10 3 15 1t5 -13v-148h133q10 0 12 -4.5t-1 -12.5l-12 -48q-2 -12 -16 -12h-116v-263q0 -44 9.5 -58.5
t39.5 -14.5q25 0 75 21q17 7 20 -10z" />
    <glyph glyph-name="u" unicode="u" horiz-adv-x="565" 
d="M536 65v-53q0 -12 -13 -12h-111q-12 0 -19 8.5t-14 35.5q-39 -33 -70.5 -46t-73.5 -13q-61 0 -97 30q-44 37 -44 130v264h-53q-12 0 -12 13v52q0 13 12 13h141q8 0 11 -3t3 -11v-297q0 -61 14 -84t51 -23q53 0 103 44v296h-57q-12 0 -12 13v52q0 13 12 13h144q8 0 11 -3
t3 -11v-319q0 -45 9 -77h49q13 0 13 -12z" />
    <glyph glyph-name="v" unicode="v" horiz-adv-x="476" 
d="M479 474v-52q0 -13 -13 -13h-32l-154 -411q-3 -8 -5 -9.5t-10 -1.5h-60q-9 0 -11 1t-5 10l-147 411h-32q-13 0 -13 13v52q0 13 13 13h179q13 0 13 -13v-52q0 -13 -13 -13h-39l64 -203q8 -26 24 -104q16 70 28 104l70 203h-38q-13 0 -13 13v52q0 13 13 13h168q13 0 13 -13
z" />
    <glyph glyph-name="w" unicode="w" horiz-adv-x="680" 
d="M676 474v-52q0 -13 -14 -13h-37l-118 -405q-3 -9 -4.5 -10t-9.5 -1h-64q-8 0 -10.5 1.5t-4.5 10.5l-62 278q-5 21 -14 96q-10 -68 -17 -96l-76 -279q-2 -6 -3 -8t-2.5 -2.5t-5.5 -0.5h-4h-64q-7 0 -8.5 1.5t-3.5 10.5l-103 404h-35q-12 0 -12 13v52q0 13 12 13h173
q13 0 13 -13v-52q0 -13 -13 -13h-41l43 -205q3 -12 16 -107q13 91 17 106l70 273q2 9 4 10.5t11 1.5h67q7 0 9.5 -2t4.5 -11l62 -280q8 -38 15 -96q1 5 3.5 24t6 38.5t6.5 32.5l50 215h-43q-12 0 -12 13v52q0 13 12 13h172q14 0 14 -13z" />
    <glyph glyph-name="x" unicode="x" horiz-adv-x="491" 
d="M476 63v-50q0 -13 -13 -13h-170q-13 0 -13 13v50q0 9 2.5 11.5t10.5 2.5h17l-42 64q-4 5 -7.5 11l-7.5 13.5l-6 11.5l-10 -16.5t-11 -17.5l-46 -66h16q8 0 11 -2.5t3 -11.5v-50q0 -13 -14 -13h-167q-13 0 -13 13v50q0 9 2.5 11.5t10.5 2.5h36l126 170l-113 162h-42
q-7 0 -9.5 3t-2.5 12v50q0 13 12 13h170q13 0 13 -13v-50q0 -9 -2.5 -12t-9.5 -3h-18l34 -52q14 -21 23 -38q14 23 24 37l36 53h-13q-7 0 -9.5 3t-2.5 12v50q0 13 13 13h160q13 0 13 -13v-50q0 -15 -13 -15h-33l-118 -158l122 -174h38q8 0 10.5 -2.5t2.5 -11.5z" />
    <glyph glyph-name="y" unicode="y" horiz-adv-x="470" 
d="M482 474v-52q0 -13 -13 -13h-36l-108 -380q-22 -77 -39 -124q-21 -60 -54 -90.5t-91 -30.5q-68 0 -123 36q-13 8 -6 21l26 49q3 5 5.5 7t4 1.5t5.5 -3.5q37 -22 79 -22q33 0 52 16t29 54l16 57h-38q-12 0 -16 11l-139 398h-36q-12 0 -12 13v52q0 13 12 13h170
q12 0 12 -13v-52q0 -13 -12 -13h-35l94 -284q11 -33 19 -77q17 79 17 81l69 280h-35q-12 0 -12 13v52q0 13 13 13h169q13 0 13 -13z" />
    <glyph glyph-name="z" unicode="z" horiz-adv-x="445" 
d="M429 115l-43 -105q-4 -10 -17 -10h-316q-10 0 -12 2t-2 12v54l242 336h-142v-56q0 -13 -13 -13h-54q-12 0 -12 13v126q0 13 12 13h310q9 0 12 -3t3 -12v-55l-238 -333h166l27 66q3 8 5.5 8.5t9.5 -2.5l55 -22q13 -5 7 -19z" />
    <glyph glyph-name="braceleft" unicode="{" horiz-adv-x="524" 
d="M401 -125v-54q0 -9 -1.5 -11t-9.5 -4q-10 -2 -47 -2q-77 1 -109.5 36t-32.5 114v165q0 72 -41 88q-11 4 -13.5 6.5t-2.5 13.5v52q0 10 2.5 13.5t12.5 6.5q42 15 42 82v171q0 77 35.5 110.5t115.5 33.5q9 0 19.5 -0.5t12.5 -0.5q11 0 14 -2.5t3 -13.5v-55q0 -11 -3 -13.5
t-14 -2.5q-50 -1 -67 -16t-17 -65v-154q0 -51 -12.5 -76t-49.5 -47q34 -20 48 -48t14 -78v-149q0 -52 16 -68t68 -16q11 0 14 -2.5t3 -13.5z" />
    <glyph glyph-name="bar" unicode="|" horiz-adv-x="524" 
d="M313 670v-824q0 -11 -3.5 -14t-14.5 -3h-66q-11 0 -13.5 3t-2.5 14v824q0 11 2.5 13.5t13.5 2.5h66q11 0 14.5 -3t3.5 -13z" />
    <glyph glyph-name="braceright" unicode="}" horiz-adv-x="524" 
d="M397 272v-51q0 -10 -3 -14t-13 -7q-42 -15 -42 -81v-171q0 -77 -35 -110.5t-115 -33.5q-8 0 -18.5 0.5t-13.5 0.5q-11 0 -14 2.5t-3 13.5v54q0 11 2.5 13t14.5 3q52 2 68 16.5t16 65.5v154q0 51 12.5 76t48.5 47q-34 20 -47.5 47.5t-13.5 77.5v150q0 52 -16 67.5
t-68 15.5q-11 0 -14 3t-3 14v54q0 9 1.5 10.5t9.5 3.5q10 2 46 2q77 -1 109.5 -35.5t32.5 -113.5v-165q0 -72 41 -88q11 -4 14 -7t3 -14z" />
    <glyph glyph-name="asciitilde" unicode="~" horiz-adv-x="703" 
d="M559 749l32 -19q9 -6 9.5 -10t-5.5 -13q-54 -108 -146 -108q-34 0 -93 24l-54 22q-33 14 -55 14q-24 0 -41 -12.5t-35 -42.5q-6 -10 -10 -10.5t-13 5.5l-29 19q-9 6 -9.5 9.5t4.5 13.5q30 63 61 88.5t79 25.5q35 0 112 -32q48 -20 62 -24.5t32 -4.5q48 0 77 48
q6 10 9.5 11t12.5 -4z" />
    <glyph glyph-name="sterling" unicode="&#xa3;" 
d="M514 68l-16 -54q-4 -14 -19 -14h-424q-11 0 -14 3t-3 14v54q0 11 3 14t14 3h79q12 52 12 102q0 51 -14 110h-86q-11 0 -13.5 3.5t-2.5 14.5v44q0 11 2.5 14t13.5 3h69q-14 54 -14 97q0 87 59.5 139t158.5 52q83 0 148 -35q11 -6 13.5 -11t-2.5 -15l-27 -51q-5 -9 -21 -3
q-6 2 -18.5 7.5t-18 7.5t-16.5 5.5t-18.5 5t-18.5 3t-23 1.5q-55 0 -87 -30t-32 -80q0 -27 16 -92h136q11 0 13.5 -3t2.5 -14v-45q0 -11 -2.5 -14.5t-13.5 -3.5h-121q17 -71 17 -111q0 -37 -13 -101h267q12 0 15 -4.5t-1 -15.5z" />
    <glyph glyph-name="currency" unicode="&#xa4;" horiz-adv-x="700" 
d="M643 120l-30 -29q-9 -8 -12.5 -8t-12.5 8l-88 88q-68 -49 -146 -49q-75 0 -148 48l-88 -89q-8 -8 -12.5 -8t-12.5 8l-31 31q-8 9 -7.5 12.5t9.5 12.5l88 88q-49 67 -49 146q0 75 48 143l-90 88q-7 8 -7 12.5t7 12.5l31 32q11 13 24 0l89 -90q71 49 148 49q74 0 145 -48
l88 88q8 8 12 8t12 -8l31 -31q13 -13 0 -25l-89 -87q51 -74 51 -146q0 -70 -49 -142l89 -90q8 -8 8 -12.5t-8 -12.5zM511 377q0 66 -46 113.5t-112 47.5t-113 -47.5t-47 -113.5t47 -112.5t113 -46.5q65 0 111.5 46.5t46.5 112.5z" />
    <glyph glyph-name="section" unicode="&#xa7;" horiz-adv-x="531" 
d="M246 414l109 -57q99 -51 99 -138q0 -90 -110 -149q48 -27 68.5 -56t20.5 -70q0 -65 -51 -110.5t-125 -45.5q-87 0 -160 47q-14 9 -16 13.5t3 12.5l27 52q6 11 22 1q70 -45 128 -45q31 0 50.5 17.5t19.5 44.5q0 23 -12 38t-47 33l-95 50q-48 25 -72 55.5t-24 80.5
q0 51 26.5 86.5t84.5 63.5q-45 23 -64.5 50.5t-19.5 66.5q0 63 48.5 104.5t122.5 41.5t133 -40q15 -11 10 -20l-28 -52q-6 -11 -22 -2q-2 1 -10 5.5t-10.5 5.5t-9.5 4.5t-10.5 5l-9.5 4t-10.5 3t-11 2t-12.5 2t-13 0.5q-32 0 -52 -14t-20 -38q0 -17 8.5 -28t34.5 -25z
M355 207q0 27 -19 46t-73 48q-83 -44 -83 -101q0 -12 4 -22.5t8.5 -17t16 -14.5t18 -11.5l23.5 -12.5l23 -12q44 25 63 47t19 50z" />
    <glyph glyph-name="dieresis" unicode="&#xa8;" horiz-adv-x="510" 
d="M410 648q0 -26 -18 -43.5t-43 -17.5t-43 18t-18 43q0 26 18 44.5t43 18.5t43 -18.5t18 -44.5zM223 648q0 -25 -18.5 -43t-43.5 -18t-42.5 18t-17.5 43q0 26 17.5 44.5t42.5 18.5t43.5 -18.5t18.5 -44.5z" />
    <glyph glyph-name="copyright" unicode="&#xa9;" horiz-adv-x="733" 
d="M694 343q0 -147 -95.5 -251.5t-231.5 -104.5q-135 0 -231.5 104.5t-96.5 250.5q0 150 96.5 253.5t235.5 103.5q132 0 227.5 -105.5t95.5 -250.5zM627 342q0 125 -76.5 212t-186.5 87q-106 0 -181.5 -87.5t-75.5 -210.5t76 -210.5t184 -87.5q107 0 183.5 87t76.5 210z
M485 244v-76q0 -10 -7 -15q-35 -25 -101 -25q-160 0 -160 215q0 105 40 159.5t117 54.5q67 0 101 -27q6 -5 6 -14v-74q0 -10 -10 -10h-39q-11 0 -11 10v49q-24 10 -46 10q-43 0 -62 -34.5t-19 -112.5q0 -89 21 -129t68 -40q22 0 43 9v50q0 10 11 10h38q10 0 10 -10z" />
    <glyph glyph-name="guillemotleft" unicode="&#xab;" horiz-adv-x="554" 
d="M490 431l-124 -189l123 -186q4 -7 5 -10.5t-1 -6.5t-9 -7l-38 -23q-9 -6 -13.5 -5.5t-10.5 9.5l-168 220q-10 13 0 24l168 216q7 8 11 8.5t13 -4.5l38 -22q16 -9 6 -24zM158 242l125 -186q4 -6 5 -10t-1.5 -7t-9.5 -7l-39 -23q-9 -6 -12 -5.5t-10 9.5l-169 220
q-9 12 0 24l169 216q7 8 10 8.5t12 -4.5l39 -22q16 -9 6 -24z" />
    <glyph glyph-name="logicalnot" unicode="&#xac;" horiz-adv-x="524" 
d="M485 258v-241q0 -11 -2.5 -14t-13.5 -3h-66q-11 0 -14 3t-3 14v168h-330q-11 0 -14 3.5t-3 14.5v55q0 11 3 14t14 3h413q11 0 13.5 -3t2.5 -14z" />
    <glyph glyph-name="registered" unicode="&#xae;" horiz-adv-x="733" 
d="M694 343q0 -147 -95.5 -251.5t-231.5 -104.5q-135 0 -231.5 104.5t-96.5 250.5q0 150 96.5 253.5t235.5 103.5q132 0 227.5 -105.5t95.5 -250.5zM627 342q0 125 -76.5 212t-186.5 87q-106 0 -181.5 -87.5t-75.5 -210.5t76 -210.5t184 -87.5q107 0 183.5 87t76.5 210z
M533 187v-29q0 -11 -10 -11h-68q-9 0 -14 8l-85 163h-33v-120h32q12 0 12 -12v-28q0 -11 -12 -11h-130q-12 0 -12 11v28q0 12 12 12h31v297h-31q-12 0 -12 12v28q0 12 12 12h136q67 0 94 -22q36 -28 36 -85q0 -80 -71 -111l75 -131h28q10 0 10 -11zM323 370h29
q37 0 53.5 15.5t16.5 50.5q0 32 -14.5 45t-51.5 13h-33v-124z" />
    <glyph glyph-name="degree" unicode="&#xb0;" horiz-adv-x="524" 
d="M413 537q0 -61 -44.5 -104.5t-106.5 -43.5t-106.5 43.5t-44.5 104.5t44.5 104.5t106.5 43.5t106.5 -43.5t44.5 -104.5zM352 537q0 37 -26.5 63t-63.5 26t-63 -26.5t-26 -62.5q0 -37 26 -64t63 -27q36 0 63 27.5t27 63.5z" />
    <glyph glyph-name="plusminus" unicode="&#xb1;" 
d="M492 282v-55q0 -11 -3 -14t-14 -3h-166v-131q0 -11 -3 -14.5t-14 -3.5h-57q-11 0 -14 3.5t-3 14.5v131h-165q-11 0 -14 3t-3 14v55q0 11 3 14t14 3h165v167q0 11 3 13.5t14 2.5h57q11 0 14 -2.5t3 -13.5v-167h166q11 0 14 -3t3 -14zM495 11v-53q0 -11 -3.5 -14t-14.5 -3
h-426q-11 0 -14 3t-3 14v53q0 11 3 14t14 3h426q11 0 14.5 -3t3.5 -14z" />
    <glyph glyph-name="acute" unicode="&#xb4;" horiz-adv-x="515" 
d="M394 716l33 -53q5 -8 5 -11q0 -6 -15 -12l-171 -78q-8 -3 -11 -3q-4 0 -7 6l-17 32q-3 6 -3 9t10 10l154 105q8 6 12 6t10 -11z" />
    <glyph glyph-name="mu" unicode="&#xb5;" 
d="M447 488v-358q0 -68 22 -103q6 -11 -4 -14l-63 -24q-8 -3 -9 -3q-7 0 -16.5 17t-16.5 41q-60 -59 -123 -59q-33 0 -63 15v-178q0 -14 -12 -16l-72 -17q-16 -4 -16 13v666q0 12 13 15l71 17q16 4 16 -12v-311q0 -57 11 -79q15 -30 56 -30q53 0 105 44v356q0 12 13 15
l72 17q16 4 16 -12z" />
    <glyph glyph-name="mu" unicode="&#x3bc;" 
d="M447 488v-358q0 -68 22 -103q6 -11 -4 -14l-63 -24q-8 -3 -9 -3q-7 0 -16.5 17t-16.5 41q-60 -59 -123 -59q-33 0 -63 15v-178q0 -14 -12 -16l-72 -17q-16 -4 -16 13v666q0 12 13 15l71 17q16 4 16 -12v-311q0 -57 11 -79q15 -30 56 -30q53 0 105 44v356q0 12 13 15
l72 17q16 4 16 -12z" />
    <glyph glyph-name="paragraph" unicode="&#xb6;" horiz-adv-x="649" 
d="M596 669v-44q0 -11 -3 -13.5t-14 -2.5h-62v-778q0 -11 -2.5 -14t-13.5 -3h-52q-11 0 -14 3t-3 14v778h-65v-778q0 -11 -2.5 -14t-13.5 -3h-53q-11 0 -13.5 3t-2.5 14v338q-134 -26 -202 42.5t-68 212.5q0 193 121 243q49 19 146 19h300q11 0 14 -3t3 -14zM282 245v364
q-88 0 -118 -24q-46 -38 -46 -153q0 -49 6.5 -83.5t23 -64t50.5 -39.5t84 0z" />
    <glyph glyph-name="guillemotright" unicode="&#xbb;" horiz-adv-x="551" 
d="M512 233l-169 -220q-6 -9 -10 -9.5t-13 5.5l-39 23q-7 4 -9.5 7t-1.5 7t5 10l125 186l-125 189q-6 9 -4.5 13.5t11.5 10.5l38 22q9 5 12.5 4.5t10.5 -8.5l169 -216q9 -12 0 -24zM304 233l-168 -220q-6 -9 -10 -9.5t-13 5.5l-39 23q-6 3 -8.5 5.5t-2.5 5.5t1 5t5 8
l124 186l-124 189q-6 9 -5.5 14t10.5 10l39 22q9 5 12.5 4.5t10.5 -8.5l168 -216q10 -11 0 -24z" />
    <glyph glyph-name="divide" unicode="&#xf7;" horiz-adv-x="524" 
d="M324 437q0 -25 -18.5 -43.5t-43.5 -18.5q-26 0 -44 18.5t-18 43.5t18.5 43t43.5 18t43.5 -18t18.5 -43zM485 283v-57q0 -12 -2.5 -15t-13.5 -3h-413q-11 0 -14 3.5t-3 14.5v57q0 11 3 14.5t14 3.5h413q11 0 13.5 -3.5t2.5 -14.5zM324 73q0 -25 -18.5 -43t-43.5 -18
t-43.5 18t-18.5 43t18 43t44 18q25 0 43.5 -18t18.5 -43z" />
    <glyph glyph-name="dotlessi" unicode="&#x131;" horiz-adv-x="306" 
d="M297 65v-53q0 -12 -12 -12h-240q-12 0 -12 12v53q0 12 12 12h70v332h-71q-10 0 -12 2.5t-2 12.5v48q0 10 2.5 12.5t12.5 2.5h156q10 0 12.5 -2.5t2.5 -12.5v-395h69q12 0 12 -12z" />
    <glyph glyph-name="florin" unicode="&#x192;" horiz-adv-x="531" 
d="M552 682l-21 -57q-3 -8 -16 -3q-40 17 -66 17q-33 0 -48.5 -18.5t-26.5 -68.5l-13 -63h120q12 0 14.5 -3.5t-1.5 -14.5l-16 -44q-4 -13 -18 -13h-116l-88 -431q-19 -92 -62.5 -139.5t-130.5 -47.5q-47 0 -72 9q-8 3 -9.5 5.5t0.5 10.5l19 61q2 6 14 4q39 -6 64 -2
q31 4 50 30t30 79l88 421h-67q-11 0 -13.5 4t0.5 13l10 44q2 10 4.5 12t11.5 2h72l17 78q11 49 23 75t32 43q41 34 112 34q59 0 99 -21q8 -5 4 -16z" />
    <glyph glyph-name="dotaccent" unicode="&#x2d9;" horiz-adv-x="510" 
d="M325 633q0 -29 -20.5 -49.5t-49.5 -20.5t-49.5 20.5t-20.5 49.5t20.5 49.5t49.5 20.5t49.5 -20.5t20.5 -49.5z" />
    <glyph glyph-name="Delta" unicode="&#x394;" horiz-adv-x="562" 
d="M234 686h94q9 0 11 -9l203 -663q4 -14 -8 -14h-503q-15 0 -11 14l202 660q4 12 12 12zM407 89l-125 457h-3l-125 -457h253z" />
    <glyph glyph-name="Delta" unicode="&#x2206;" horiz-adv-x="562" 
d="M234 686h94q9 0 11 -9l203 -663q4 -14 -8 -14h-503q-15 0 -11 14l202 660q4 12 12 12zM407 89l-125 457h-3l-125 -457h253z" />
    <glyph glyph-name="afii10023" unicode="&#x401;" horiz-adv-x="510" 
d="M466 171v-155q0 -11 -3 -13.5t-15 -2.5h-393q-10 0 -12.5 2.5t-2.5 12.5v49q0 10 2.5 13t12.5 3h58v525h-58q-10 0 -12.5 3t-2.5 13v49q0 10 2.5 13t12.5 3h390q9 0 12 -3t3 -13v-145q0 -15 -14 -15h-57q-15 0 -15 15v72h-153v-197h184q11 0 14 -3t3 -14v-53
q0 -10 -3 -13t-14 -3h-184v-226h159v83q0 8 3 11t11 3h56q16 0 16 -14zM420 798q0 -26 -18 -43.5t-43 -17.5t-43 18t-18 43q0 26 18 44.5t43 18.5t43 -18.5t18 -44.5zM233 798q0 -25 -18.5 -43t-43.5 -18t-42.5 18t-17.5 43q0 26 17.5 44.5t42.5 18.5t43.5 -18.5t18.5 -44.5
z" />
    <glyph glyph-name="afii10051" unicode="&#x402;" horiz-adv-x="643" 
d="M290 598v-204q66 30 132 30q83 0 131 -50q50 -52 50 -164q0 -133 -55 -186q-40 -39 -108 -39q-46 0 -83 16q-14 7 -11 18l14 61q1 4 6 5.5t11 -0.5l7 -3q24 -11 44 -11q26 0 41 15q24 23 24 122q0 66 -20 94q-25 35 -78 35q-51 0 -105 -29v-291q0 -17 -16 -17h-163
q-14 0 -14 15v51q0 14 14 14h71v518h-87v-108q0 -13 -13 -13h-55q-12 0 -12 13v183q0 12 13 12h421q13 0 13 -14v-179q0 -15 -13 -15h-54q-13 0 -13 13v108h-92z" />
    <glyph glyph-name="afii10052" unicode="&#x403;" horiz-adv-x="489" 
d="M114 605h-60q-14 0 -14 16v49q0 15 14 15h395q13 0 13 -14v-179q0 -15 -13 -15h-56q-12 0 -12 15v104h-159v-515h75q15 0 15 -17v-47q0 -17 -17 -17h-238q-17 0 -17 17v47q0 17 14 17h60v524zM381 894l33 -53q5 -8 5 -11q0 -6 -15 -12l-171 -78q-7 -3 -11 -3t-7 6l-17 32
q-3 6 -3 9t10 10l154 105q7 6 12 6q4 0 10 -11z" />
    <glyph glyph-name="afii10053" unicode="&#x404;" horiz-adv-x="506" 
d="M465 177v-125q0 -20 -23 -31q-68 -37 -137 -37q-101 0 -168 65q-90 88 -90 294q0 210 91 299q61 59 156 59q82 0 142 -39q23 -15 23 -29v-122q0 -15 -15 -15h-59q-9 0 -11.5 3.5t-2.5 11.5v89q-41 17 -74 17q-54 0 -87 -35q-54 -55 -52 -182h174q16 0 16 -17v-53
q0 -17 -16 -17h-173q0 -151 59 -209q36 -36 91 -36q32 0 68 18v91q0 8 3 11t12 3h59q8 0 11 -2.5t3 -11.5z" />
    <glyph glyph-name="afii10054" unicode="&#x405;" horiz-adv-x="501" 
d="M456 187q0 -89 -59 -144.5t-155 -55.5t-171 36q-25 12 -25 28v134q0 15 15 15h59q15 0 15 -15v-82q65 -24 107 -24q49 0 76.5 26t27.5 72q0 39 -16 60.5t-71 51.5l-98 54q-106 59 -106 167q0 86 57 137.5t152 51.5q46 0 91.5 -11.5t69.5 -29.5q11 -8 11 -19v-126
q0 -14 -14 -14h-60q-14 0 -14 14v80q-47 16 -83 16q-47 0 -74 -23t-27 -64q0 -33 18.5 -53.5t73.5 -51.5l83 -46q117 -65 117 -184z" />
    <glyph glyph-name="afii10055" unicode="&#x406;" horiz-adv-x="362" 
d="M324 63v-47q0 -11 -3 -13.5t-15 -2.5h-252q-11 0 -13.5 2.5t-2.5 13.5v47q0 11 2.5 14t13.5 3h72v525h-72q-11 0 -13.5 3t-2.5 14v47q0 11 2.5 14t13.5 3h252q11 0 14.5 -3t3.5 -14v-47q0 -11 -3.5 -14t-14.5 -3h-72v-525h72q11 0 14.5 -3t3.5 -14z" />
    <glyph glyph-name="afii10056" unicode="&#x407;" horiz-adv-x="362" 
d="M324 63v-47q0 -11 -3 -13.5t-15 -2.5h-252q-11 0 -13.5 2.5t-2.5 13.5v47q0 11 2.5 14t13.5 3h72v525h-72q-11 0 -13.5 3t-2.5 14v47q0 11 2.5 14t13.5 3h252q11 0 14.5 -3t3.5 -14v-47q0 -11 -3.5 -14t-14.5 -3h-72v-525h72q11 0 14.5 -3t3.5 -14zM334 798
q0 -26 -18 -43.5t-43 -17.5t-43 18t-18 43q0 26 18 44.5t43 18.5t43 -18.5t18 -44.5zM147 798q0 -25 -18.5 -43t-43.5 -18t-42.5 18t-17.5 43q0 26 17.5 44.5t42.5 18.5t43.5 -18.5t18.5 -44.5z" />
    <glyph glyph-name="afii10057" unicode="&#x408;" horiz-adv-x="456" 
d="M378 669v-439q0 -94 -10 -130q-12 -39 -38 -66q-47 -49 -141 -49q-90 0 -133 53t-43 139v6q0 8 0.5 10.5t2.5 4t8 1.5h78q9 0 9 -15q0 -112 80 -112q14 0 26 2.5t20 8.5t14 11.5t9.5 17t6 18t3 21t0.5 21v23v21.5v388h-156q-11 0 -13.5 2.5t-2.5 13.5v49q0 11 2.5 14
t13.5 3h248q11 0 13.5 -3t2.5 -14z" />
    <glyph glyph-name="afii10058" unicode="&#x409;" horiz-adv-x="823" 
d="M501 403h81q101 0 157 -42q69 -53 69 -158q0 -93 -55 -147q-58 -56 -170 -56h-249q-13 0 -13 17v50q0 14 16 14h56v515h-129l-2 -62q-4 -149 -10 -236q-4 -66 -8 -101t-22 -85.5t-50 -78.5q-41 -36 -94 -45l-13 -2q-29 -5 -33 7l-22 71q-5 18 10 20l12 2q50 9 74 34
q37 38 48 164q9 103 11 220l1 101h-60q-14 0 -14 12v52q0 16 17 16h452q13 0 13 -16v-48q0 -16 -12 -16h-61v-202zM501 88h73q62 0 92 30q30 29 30 82q0 62 -36 92q-30 24 -95 24h-64v-228z" />
    <glyph glyph-name="afii10059" unicode="&#x40a;" horiz-adv-x="874" 
d="M612 686q13 0 13 -16v-49q0 -16 -12 -16h-61v-202h81q101 0 157 -42q69 -53 69 -158q0 -93 -55 -147q-58 -56 -170 -56h-247q-16 0 -16 17v50q0 14 13 14h60v235h-223v-236h60q12 0 12 -13v-55q0 -12 -11 -12h-231q-11 0 -11 12v55q0 13 12 13h61v525h-62q-11 0 -11 11
v57q0 13 11 13h231q11 0 11 -13v-54q0 -14 -11 -14h-61v-202h223v202h-59q-14 0 -14 15v50q0 10 3 13t13 3h225zM552 88h73q62 0 92 30q30 29 30 82q0 62 -36 92q-30 24 -95 24h-64v-228z" />
    <glyph glyph-name="afii10060" unicode="&#x40b;" horiz-adv-x="710" 
d="M360 68v-54q0 -14 -14 -14h-232q-6 0 -9 0.5t-5.5 3.5t-2.5 10v53q0 13 14 13h71v519h-87v-109q0 -13 -10 -13h-59q-11 0 -11 12v182q0 14 13 14h420q8 0 11 -3t3 -11v-179q0 -9 -3 -12t-11 -3h-52q-14 0 -14 15v107h-92v-204q63 29 128 29q92 0 143 -47q45 -43 45 -119
v-178h59q15 0 15 -14v-50q0 -16 -13 -16h-227q-12 0 -12 14v52q0 14 12 14h58v169q0 44 -23 65q-25 23 -75 23q-48 0 -110 -28v-229h56q14 0 14 -12z" />
    <glyph glyph-name="afii10061" unicode="&#x40c;" horiz-adv-x="588" 
d="M218 312v-231h53q17 0 17 -17v-47q0 -17 -17 -17h-214q-17 0 -17 17v47q0 17 17 17h53v524h-56q-14 0 -14 16v48q0 16 13 16h222q13 0 13 -16v-52q0 -12 -13 -12h-57v-204h51q41 0 60 18t30 65l16 77q15 71 43 99t76 37l11 2q25 5 30 -10l17 -58q5 -15 -12 -19l-20 -4
q-23 -4 -36 -22q-8 -12 -19 -57l-14 -63q-12 -56 -36 -81q-18 -18 -40 -27q30 -11 51 -32q24 -26 34 -66l27 -110q10 -39 17 -48q11 -15 36 -20l21 -4q18 -3 12 -18l-21 -63q-5 -15 -33 -12l-17 2q-52 6 -79 37q-5 6 -9.5 12.5t-8 14.5l-6 14t-5 16t-4 14.5t-3.5 16t-3 13.5
l-24 110q-10 42 -24 57q-20 20 -61 20h-57zM404 894l33 -53q5 -8 5 -11q0 -6 -15 -12l-171 -78q-7 -3 -11 -3t-7 6l-17 32q-3 6 -3 9t10 10l154 105q8 6 12 6t10 -11z" />
    <glyph glyph-name="afii10062" unicode="&#x40e;" horiz-adv-x="562" 
d="M501 605l-144 -485q-22 -74 -64 -107q-36 -29 -96 -29q-70 0 -112 30l-7 5q-14 10 -9 22l26 59q6 13 27 -1l9 -6q31 -21 61 -21q31 0 48 17q18 17 32 66l10 38h-49q-12 0 -17 14l-151 398h-42q-13 0 -13 14v55q0 11 13 11h197q13 0 13 -13v-51q0 -16 -15 -16h-35l77 -213
q19 -52 38 -129h4q9 47 34 136l62 206h-38q-12 0 -12 13v54q0 13 15 13h181q12 0 12 -12v-56q0 -12 -12 -12h-43zM442 824l-1 -4q-13 -47 -46 -70q-37 -26 -100 -26q-60 0 -96 26t-46 70l-1 4q-6 25 8 27l55 9q15 2 19 -14l3 -10q7 -24 19 -35q15 -13 42 -13q26 0 40 13
q10 8 19 35l3 10q4 16 19 14l55 -9q14 -2 8 -27z" />
    <glyph glyph-name="afii10145" unicode="&#x40f;" horiz-adv-x="645" 
d="M222 89h201v516h-59q-13 0 -13 13v55q0 12 12 12h225q17 0 17 -16v-48q0 -16 -12 -16h-62v-524h57q17 0 17 -17v-47q0 -17 -17 -17h-212v-170q0 -15 -13 -15h-80q-9 0 -11.5 3.5t-2.5 11.5v170h-212q-17 0 -17 17v47q0 17 17 17h57v524h-57q-17 0 -17 16v48q0 16 17 16
h221q10 0 13 -3t3 -13v-51q0 -13 -12 -13h-60v-516z" />
    <glyph glyph-name="afii10017" unicode="&#x410;" horiz-adv-x="584" 
d="M588 66v-52q0 -14 -14 -14h-210q-8 0 -11 3t-3 11v52q0 8 3 11t11 3h49l-31 113h-189l-31 -113h52q15 0 15 -14v-52q0 -14 -15 -14h-204q-8 0 -10.5 3t-2.5 11v52q0 8 2.5 11t10.5 3h41l182 595q3 9 5.5 10t12.5 1h81q10 0 13 -2t6 -12l180 -592h43q14 0 14 -14zM361 274
l-51 196q-4 17 -8 37l-8.5 44t-7.5 37q-13 -78 -22 -115l-53 -199h150z" />
    <glyph glyph-name="afii10018" unicode="&#x411;" horiz-adv-x="580" 
d="M114 605h-60q-14 0 -14 13v53q0 14 12 14h427q13 0 13 -11v-172q0 -15 -14 -15h-60q-14 0 -14 15v94h-182v-193h95q101 0 156 -54q57 -55 57 -152q0 -90 -53 -141q-26 -26 -65.5 -39t-63.5 -15t-63 -2h-228q-17 0 -17 15v51q0 15 14 15h60v524zM222 88h72q65 0 94 28
q29 29 29 84q0 58 -32 88q-30 28 -99 28h-64v-228z" />
    <glyph glyph-name="afii10019" unicode="&#x412;" horiz-adv-x="580" 
d="M55 686h231q74 0 109.5 -9t60.5 -35q46 -46 46 -126q0 -109 -101 -157q58 -14 91.5 -59t33.5 -109q0 -65 -34.5 -114.5t-88.5 -64.5q-42 -12 -122 -12h-226q-10 0 -12.5 2.5t-2.5 12.5v49q0 10 2.5 13t12.5 3h58v525h-58q-10 0 -12.5 3t-2.5 13v49q0 10 2.5 13t12.5 3z
M218 391h51q64 0 93 27t29 87q0 52 -24.5 75t-81.5 23h-67v-212zM218 87h67q67 0 97.5 26t30.5 83q0 112 -130 112h-65v-221z" />
    <glyph glyph-name="afii10020" unicode="&#x413;" horiz-adv-x="489" 
d="M114 605h-60q-14 0 -14 16v49q0 15 14 15h395q13 0 13 -14v-179q0 -15 -13 -15h-56q-12 0 -12 15v104h-159v-515h75q15 0 15 -17v-47q0 -17 -17 -17h-238q-17 0 -17 17v47q0 17 14 17h60v524z" />
    <glyph glyph-name="afii10021" unicode="&#x414;" horiz-adv-x="597" 
d="M484 83h57q10 0 13.5 -4t3.5 -15v-229q0 -15 -13 -15h-80q-14 0 -14 15v165h-336v-165q0 -15 -13 -15h-80q-13 0 -13 15v229q0 12 2.5 15.5t14.5 3.5h33q58 115 77 248q11 72 11 206v68h-58q-16 0 -16 16v50q0 14 14 14h454q17 0 17 -16v-49q0 -15 -15 -15h-59v-522z
M376 89v507h-132l-1 -90q-2 -142 -19 -232q-20 -98 -59 -185h211z" />
    <glyph glyph-name="afii10022" unicode="&#x415;" horiz-adv-x="510" 
d="M466 171v-155q0 -11 -3 -13.5t-15 -2.5h-393q-10 0 -12.5 2.5t-2.5 12.5v49q0 10 2.5 13t12.5 3h58v525h-58q-10 0 -12.5 3t-2.5 13v49q0 10 2.5 13t12.5 3h390q9 0 12 -3t3 -13v-145q0 -15 -14 -15h-57q-15 0 -15 15v72h-153v-197h184q11 0 14 -3t3 -14v-53
q0 -10 -3 -13t-14 -3h-184v-226h159v83q0 8 3 11t11 3h56q16 0 16 -14z" />
    <glyph glyph-name="afii10024" unicode="&#x416;" horiz-adv-x="806" 
d="M293 685h220q14 0 14 -16v-48q0 -16 -11 -16h-59v-204h37q36 0 55 18q17 16 28 62l17 80q14 68 45 99q32 32 80 38l16 2q15 2 19 -11l17 -58q5 -15 -12 -19l-20 -4q-24 -6 -35 -21t-20 -58l-14 -63q-12 -56 -36 -81q-16 -17 -40 -26v-3q31 -8 51 -30q22 -23 33 -66
l27 -110q9 -38 17 -48q11 -14 42 -21l15 -3q18 -3 12 -18l-21 -63q-3 -9 -6 -11t-12 -2q-30 0 -61.5 10.5t-48.5 29.5q-22 24 -39 101l-25 110q-9 40 -24 57q-19 20 -63 20h-34v-231h53q10 0 13.5 -3t3.5 -14v-47q0 -17 -17 -17h-214q-17 0 -17 17v47q0 17 17 17h53v231h-34
q-44 0 -63 -20q-15 -17 -24 -57l-25 -110q-17 -77 -39 -101q-17 -19 -48.5 -29.5t-61.5 -10.5q-9 0 -12 2t-6 11l-21 63q-6 15 12 18l15 3q30 6 42 21q7 9 17 48l27 110q11 44 32 65q20 21 52 31v3q-24 9 -40 26q-24 25 -36 81l-14 63q-9 43 -20 58t-35 21l-20 4
q-17 4 -12 19l17 58q4 13 19 11l16 -2q48 -6 80 -38q31 -31 45 -99l17 -80q11 -46 28 -62q19 -18 55 -18h37v204h-56q-14 0 -14 16v50q0 14 14 14z" />
    <glyph glyph-name="afii10025" unicode="&#x417;" horiz-adv-x="503" 
d="M166 325v58q0 14 13 14h29q57 0 88 29t31 84q0 47 -25 74q-26 29 -76 29q-41 0 -80 -21v-82q0 -11 -10 -11h-66q-12 0 -12 12v122q0 19 36 37q67 32 146 32q92 0 142 -48q53 -51 53 -135q0 -75 -47 -122q-23 -23 -54 -34q56 -15 88 -59q31 -42 31 -108q0 -92 -55 -149
q-63 -63 -178 -63q-80 0 -151 38q-24 13 -24 33v120q0 13 14 13h61q13 0 13 -13v-81q36 -21 87 -21q56 0 87 29q34 32 34 92q0 48 -26 78q-33 37 -96 37h-41q-12 0 -12 16z" />
    <glyph glyph-name="afii10026" unicode="&#x418;" horiz-adv-x="668" 
d="M221 91v-10h54q13 0 13 -17v-47q0 -17 -16 -17h-216q-16 0 -16 17v47q0 17 16 17h57v524h-61q-12 0 -12 13v51q0 16 12 16h223q13 0 13 -15v-52q0 -13 -12 -13h-55v-275q0 -39 -3 -105h4q22 50 52 97l173 273v10h-54q-13 0 -13 12v55q0 13 13 13h223q12 0 12 -14v-54
q0 -12 -11 -12h-62v-524h60q13 0 13 -14v-52q0 -15 -14 -15h-218q-16 0 -16 17v47q0 17 16 17h51v275q0 39 3 105h-4q-14 -38 -51 -97z" />
    <glyph glyph-name="afii10027" unicode="&#x419;" horiz-adv-x="668" 
d="M221 91v-10h54q13 0 13 -17v-47q0 -17 -16 -17h-216q-16 0 -16 17v47q0 17 16 17h57v524h-61q-12 0 -12 13v51q0 16 12 16h223q13 0 13 -15v-52q0 -13 -12 -13h-55v-275q0 -39 -3 -105h4q22 50 52 97l173 273v10h-54q-13 0 -13 12v55q0 13 13 13h223q12 0 12 -14v-54
q0 -12 -11 -12h-62v-524h60q13 0 13 -14v-52q0 -15 -14 -15h-218q-16 0 -16 17v47q0 17 16 17h51v275q0 39 3 105h-4q-14 -38 -51 -97zM479 824l-1 -4q-13 -47 -46 -70q-37 -26 -100 -26q-60 0 -96 26t-46 70l-1 4q-6 25 8 27l55 9q15 2 19 -14l3 -10q7 -24 19 -35
q15 -13 42 -13q26 0 40 13q10 8 19 35l3 10q4 16 19 14l55 -9q14 -2 8 -27z" />
    <glyph glyph-name="afii10028" unicode="&#x41a;" horiz-adv-x="588" 
d="M218 312v-231h53q17 0 17 -17v-47q0 -17 -17 -17h-214q-17 0 -17 17v47q0 17 17 17h53v524h-56q-14 0 -14 16v48q0 16 13 16h222q13 0 13 -16v-52q0 -12 -13 -12h-57v-204h51q41 0 60 18t30 65l16 77q15 71 43 99t76 37l11 2q25 5 30 -10l17 -58q5 -15 -12 -19l-20 -4
q-23 -4 -36 -22q-8 -12 -19 -57l-14 -63q-12 -56 -36 -81q-18 -18 -40 -27q30 -11 51 -32q24 -26 34 -66l27 -110q10 -39 17 -48q11 -15 36 -20l21 -4q18 -3 12 -18l-21 -63q-5 -15 -33 -12l-17 2q-52 6 -79 37q-5 6 -9.5 12.5t-8 14.5l-6 14t-5 16t-4 14.5t-3.5 16t-3 13.5
l-24 110q-10 42 -24 57q-20 20 -61 20h-57z" />
    <glyph glyph-name="afii10029" unicode="&#x41b;" horiz-adv-x="615" 
d="M393 596h-129l-2 -62q-4 -149 -10 -236q-4 -66 -8 -101t-22 -85.5t-50 -78.5q-41 -36 -94 -45l-13 -2q-29 -5 -33 7l-22 71q-5 18 10 20l12 2q50 9 74 34q37 38 48 164q9 103 11 220l1 101h-60q-14 0 -14 12v52q0 16 17 16h452q14 0 14 -16v-50q0 -14 -14 -14h-60v-524
h61q13 0 13 -17v-47q0 -17 -17 -17h-224q-13 0 -13 17v50q0 14 16 14h56v515z" />
    <glyph glyph-name="afii10030" unicode="&#x41c;" horiz-adv-x="732" 
d="M703 66v-52q0 -8 -3 -11t-11 -3h-215q-8 0 -11 3t-3 11v52q0 8 3 11t11 3h59l-9 338q-2 51 0 138q-11 -59 -37 -138l-84 -249q-3 -9 -6 -11.5t-12 -2.5h-44q-9 0 -12 2.5t-6 12.5l-77 248q-31 102 -36 137q1 -31 -1 -136l-10 -339h59q8 0 11 -3t3 -11v-52q0 -8 -3 -11
t-11 -3h-210q-8 0 -11 3t-3 11v52q0 8 3 11t11 3h53l27 525h-61q-15 0 -15 15v52q0 14 15 14h159q10 0 13.5 -2t6.5 -11l99 -300q13 -41 21 -91q9 48 24 92l103 299q5 13 19 13h158q16 0 16 -14v-52q0 -15 -16 -15h-60l28 -525h51q8 0 11 -3t3 -11z" />
    <glyph glyph-name="afii10031" unicode="&#x41d;" horiz-adv-x="667" 
d="M627 64v-49q0 -10 -2.5 -12.5t-12.5 -2.5h-223q-10 0 -13 2.5t-3 12.5v49q0 10 3 13t13 3h56v232h-224v-232h57q10 0 12.5 -3t2.5 -13v-49q0 -10 -2.5 -12.5t-12.5 -2.5h-223q-10 0 -12.5 2.5t-2.5 12.5v49q0 10 2.5 13t12.5 3h58v525h-58q-10 0 -12.5 3t-2.5 13v49
q0 10 2.5 13t12.5 3h223q10 0 12.5 -3t2.5 -13v-49q0 -10 -2.5 -13t-12.5 -3h-57v-206h224v206h-55q-10 0 -13.5 3t-3.5 13v49q0 10 3.5 13t13.5 3h222q10 0 12.5 -3t2.5 -13v-49q0 -10 -2.5 -13t-12.5 -3h-58v-525h58q10 0 12.5 -3t2.5 -13z" />
    <glyph glyph-name="afii10032" unicode="&#x41e;" horiz-adv-x="569" 
d="M521 348q0 -180 -61 -271.5t-180 -91.5q-233 0 -233 362q0 67 10.5 124.5t35.5 112t75 86t120 31.5q233 0 233 -353zM405 341q0 148 -34 217q-29 57 -86 57q-63 0 -93 -66.5t-30 -205.5q0 -146 34 -215q28 -57 88 -57q63 0 92 65t29 205z" />
    <glyph glyph-name="afii10033" unicode="&#x41f;" horiz-adv-x="650" 
d="M536 81h57q17 0 17 -17v-47q0 -17 -17 -17h-221q-16 0 -16 17v47q0 17 13 17h59v515h-207v-515h58q14 0 14 -17v-47q0 -17 -17 -17h-220q-16 0 -16 17v47q0 17 16 17h57v524h-58q-15 0 -15 16v51q0 13 12 13h541q17 0 17 -16v-48q0 -16 -17 -16h-57v-524z" />
    <glyph glyph-name="afii10034" unicode="&#x420;" 
d="M55 686h234q65 0 100.5 -8.5t60.5 -30.5q58 -52 58 -146q0 -105 -60 -162t-160 -57h-67v-202h71q10 0 12.5 -3t2.5 -13v-49q0 -10 -2.5 -12.5t-12.5 -2.5h-237q-10 0 -12.5 2.5t-2.5 12.5v49q0 10 2.5 13t12.5 3h58v525h-58q-10 0 -12.5 3t-2.5 13v49q0 10 2.5 13t12.5 3
zM221 373h51q65 0 96.5 27.5t31.5 93.5q0 61 -25.5 84.5t-92.5 23.5h-61v-229z" />
    <glyph glyph-name="afii10035" unicode="&#x421;" horiz-adv-x="506" 
d="M465 177v-129q0 -10 -11 -19q-24 -19 -69.5 -31.5t-91.5 -12.5q-58 0 -102 21t-71 55t-44 82t-23 96.5t-6 104.5q0 176 62.5 266.5t183.5 90.5q45 0 89 -13.5t67 -34.5q9 -9 9 -19v-123q0 -15 -15 -15h-59q-14 0 -14 15v82q-43 18 -73 18q-64 0 -92 -41q-45 -66 -43 -227
q1 -134 39 -206q31 -62 104 -62q33 0 71 17v85q0 13 15 13h59q15 0 15 -13z" />
    <glyph glyph-name="afii10036" unicode="&#x422;" horiz-adv-x="464" 
d="M459 670v-178q0 -15 -15 -15h-52q-15 0 -15 15v107h-89v-519h69q10 0 13 -3t3 -13v-49q0 -10 -3 -12.5t-13 -2.5h-246q-10 0 -13.5 3t-3.5 12v49q0 10 3.5 13t13.5 3h69v519h-90v-107q0 -15 -14 -15h-51q-16 0 -16 15v179q0 9 3.5 12t13.5 3h417q16 0 16 -16z" />
    <glyph glyph-name="afii10037" unicode="&#x423;" horiz-adv-x="562" 
d="M501 605l-144 -485q-22 -74 -64 -107q-36 -29 -96 -29q-70 0 -112 30l-7 5q-14 10 -9 22l26 59q6 13 27 -1l9 -6q31 -21 61 -21q31 0 48 17q18 17 32 66l10 38h-49q-12 0 -17 14l-151 398h-42q-13 0 -13 14v55q0 11 13 11h197q13 0 13 -13v-51q0 -16 -15 -16h-35l77 -213
q19 -52 38 -129h4q9 47 34 136l62 206h-38q-12 0 -12 13v54q0 13 15 13h181q12 0 12 -12v-56q0 -12 -12 -12h-43z" />
    <glyph glyph-name="afii10038" unicode="&#x424;" horiz-adv-x="646" 
d="M432 0h-218q-17 0 -17 18v41q0 17 17 17h55v51h-19q-100 0 -157 58q-58 60 -58 164q0 108 58 164q56 56 157 56h19v50h-60q-12 0 -12 16v42q0 17 17 17h218q17 0 17 -17v-44q0 -14 -13 -14h-59v-50h19q101 0 157 -56q58 -56 58 -164q0 -104 -58 -164q-57 -58 -157 -58
h-19v-51h55q17 0 17 -17v-41q0 -18 -17 -18zM375 490v-285h12q61 0 91 35q28 33 28 108q0 73 -28 107q-29 35 -91 35h-12zM271 490h-12q-62 0 -91 -35q-28 -34 -28 -107q0 -75 28 -108q30 -35 91 -35h12v285z" />
    <glyph glyph-name="afii10039" unicode="&#x425;" horiz-adv-x="547" 
d="M551 66v-51q0 -15 -13 -15h-204q-14 0 -14 15v51q0 14 13 14h36l-70 133q-14 27 -26 58q-15 -39 -26 -59l-70 -132h35q14 0 14 -14v-51q0 -15 -14 -15h-204q-14 0 -14 15v51q0 14 14 14h49l157 280l-140 245h-50q-15 0 -15 15v52q0 14 15 14h201q15 0 15 -14v-52
q0 -15 -15 -15h-34l60 -113q8 -16 23 -52q19 51 22 58l56 107h-34q-15 0 -15 15v52q0 14 16 14h201q14 0 14 -14v-52q0 -15 -14 -15h-52l-138 -245l158 -280h50q13 0 13 -14z" />
    <glyph glyph-name="afii10040" unicode="&#x426;" horiz-adv-x="646" 
d="M222 89h202v516h-59q-13 0 -13 13v55q0 12 12 12h225q17 0 17 -16v-48q0 -16 -12 -16h-62v-516h61q9 0 11 -4t2 -15v-235q0 -15 -13 -15h-80q-9 0 -11.5 3.5t-2.5 11.5v165h-442q-17 0 -17 17v47q0 17 17 17h57v524h-57q-17 0 -17 16v48q0 16 17 16h221q10 0 13 -3t3 -13
v-51q0 -13 -12 -13h-60v-516z" />
    <glyph glyph-name="afii10041" unicode="&#x427;" horiz-adv-x="631" 
d="M410 375v230h-59q-13 0 -13 15v49q0 16 15 16h225q13 0 13 -16v-48q0 -16 -12 -16h-61v-524h60q13 0 13 -17v-47q0 -17 -13 -17h-232q-16 0 -16 17v47q0 17 16 17h64v208q-62 -29 -137 -29q-96 0 -142 48q-42 43 -42 122v175h-62q-12 0 -12 16v48q0 16 17 16h226
q11 0 11 -13v-54q0 -13 -13 -13h-59v-170q0 -40 20 -61q25 -27 77 -27q55 0 116 28z" />
    <glyph glyph-name="afii10042" unicode="&#x428;" horiz-adv-x="852" 
d="M375 89v583q0 13 11 13h78q13 0 13 -16v-580h160v516h-59q-13 0 -13 14v53q0 13 17 13h217q14 0 14 -16v-48q0 -16 -12 -16h-62v-524h57q17 0 17 -17v-47q0 -17 -14 -17h-743q-16 0 -16 17v47q0 17 16 17h57v524h-57q-10 0 -13 3t-3 13v48q0 16 13 16h220q7 0 10 -2.5
t3.5 -5t0.5 -8.5v-48q0 -16 -11 -16h-61v-516h160z" />
    <glyph glyph-name="afii10043" unicode="&#x429;" horiz-adv-x="852" 
d="M706 0h-650q-16 0 -16 17v47q0 17 16 17h57v524h-57q-10 0 -13 3t-3 13v48q0 16 13 16h220q7 0 10 -2.5t3.5 -5t0.5 -8.5v-48q0 -16 -11 -16h-61v-516h160v583q0 13 11 13h78q13 0 13 -16v-580h160v516h-59q-13 0 -13 14v53q0 13 17 13h217q14 0 14 -16v-48
q0 -16 -12 -16h-62v-516h57q10 0 13.5 -4t3.5 -15v-235q0 -15 -13 -15h-80q-14 0 -14 15v165z" />
    <glyph glyph-name="afii10044" unicode="&#x42a;" horiz-adv-x="622" 
d="M300 403h81q101 0 157 -42q69 -53 69 -158q0 -93 -55 -147q-58 -56 -170 -56h-252q-15 0 -15 14v50q0 17 16 17h61v515h-86v-104q0 -15 -15 -15h-51q-9 0 -12 3t-3 12v180q0 13 13 13h322q13 0 13 -16v-50q0 -14 -13 -14h-60v-202zM300 88h73q62 0 92 30q30 29 30 82
q0 62 -36 92q-30 24 -95 24h-64v-228z" />
    <glyph glyph-name="afii10045" unicode="&#x42b;" horiz-adv-x="836" 
d="M51 685h227q10 0 13 -3t3 -11v-50q0 -16 -13 -16h-60v-202h81q101 0 157 -42q69 -53 69 -158q0 -93 -55 -147q-58 -56 -170 -56h-248q-15 0 -15 17v47q0 17 16 17h57v524h-61q-12 0 -12 13v56q0 11 11 11zM614 605h-61q-13 0 -13 16v48q0 16 17 16h225q14 0 14 -16v-48
q0 -6 -0.5 -8.5t-3.5 -5t-10 -2.5h-60v-524h57q17 0 17 -17v-47q0 -17 -17 -17h-222q-17 0 -17 17v47q0 17 17 17h57v524zM221 88h73q62 0 92 30q30 29 30 82q0 62 -36 92q-30 24 -95 24h-64v-228z" />
    <glyph glyph-name="afii10046" unicode="&#x42c;" horiz-adv-x="543" 
d="M56 685h225q13 0 13 -16v-48q0 -16 -12 -16h-61v-202h81q101 0 157 -42q69 -53 69 -158q0 -93 -55 -147q-58 -56 -170 -56h-247q-16 0 -16 17v50q0 14 13 14h60v524h-59q-14 0 -14 15v49q0 10 3 13t13 3zM221 88h73q62 0 92 30q30 29 30 82q0 62 -36 92q-30 24 -95 24
h-64v-228z" />
    <glyph glyph-name="afii10047" unicode="&#x42d;" horiz-adv-x="519" 
d="M165 328v57q0 9 3.5 12t12.5 3h177q-3 123 -43 173q-32 40 -92 40q-40 0 -79 -17v-85q0 -15 -14 -15h-63q-11 0 -11 13v124q0 14 14 24q57 44 156 44q103 0 162 -58q50 -49 67 -125t17 -177q0 -205 -84 -293q-61 -64 -172 -64q-95 0 -147 37q-19 13 -19 31v125
q0 14 14 14h59q15 0 15 -14v-87q37 -18 80 -18q59 0 92 37q48 53 47 204h-176q-9 0 -12.5 3t-3.5 12z" />
    <glyph glyph-name="afii10048" unicode="&#x42e;" horiz-adv-x="827" 
d="M217 400h101q2 66 23 134t62 110q57 58 152 58q91 0 147 -59q83 -87 83 -302q0 -208 -89 -298q-58 -58 -148 -58q-87 0 -142 55q-48 48 -68.5 123t-20.5 147h-100v-229h56q16 0 16 -17v-47q0 -17 -16 -17h-221q-17 0 -17 17v47q0 17 17 17h57v525h-60q-14 0 -14 14v50
q0 16 15 16h226q13 0 13 -14v-50q0 -16 -13 -16h-59v-206zM548 71q40 0 66 24q55 51 55 248q0 186 -51 243q-26 30 -69 30q-41 0 -68 -29q-52 -56 -52 -259q0 -178 51 -230q27 -27 68 -27z" />
    <glyph glyph-name="afii10049" unicode="&#x42f;" horiz-adv-x="589" 
d="M368 296h-35q-48 0 -70 -22q-17 -16 -32 -71l-21 -81q-19 -75 -45 -100q-17 -16 -48 -27t-57 -11q-14 0 -19 13l-21 63q-5 15 12 18l16 3q28 4 43 23q9 12 24 63l18 61q13 44 26 64q17 25 46 39q-56 13 -88 53q-33 41 -33 107q0 91 53 142q54 53 165 53h234q13 0 13 -13
v-53q0 -14 -11 -14h-62v-525h60q13 0 13 -13v-54q0 -14 -12 -14h-224q-16 0 -16 17v47q0 17 13 17h58v215zM368 383v214h-57q-61 0 -90 -28q-29 -29 -29 -83q0 -45 26 -72q30 -31 101 -31h49z" />
    <glyph glyph-name="afii10065" unicode="&#x430;" horiz-adv-x="491" 
d="M471 65v-53q0 -12 -13 -12h-105q-13 0 -20.5 9.5t-14.5 37.5q-59 -58 -136 -58q-64 0 -102 38.5t-38 104.5q0 173 261 171v32q0 46 -17.5 64.5t-62.5 18.5q-46 0 -114 -28q-14 -6 -18 5l-17 51q-3 9 -0.5 12.5t11.5 8.5q70 35 153 35q163 0 163 -148v-184q0 -59 10 -93
h47q13 0 13 -12zM303 112v119q-25 0 -42 -1.5t-42 -7t-40 -14.5t-26.5 -27t-11.5 -43q0 -32 19.5 -53t48.5 -21q45 0 94 48z" />
    <glyph glyph-name="afii10066" unicode="&#x431;" horiz-adv-x="523" 
d="M130 392h5q16 34 49 60q43 32 99 32q79 0 130 -53q63 -66 63 -196q0 -129 -71 -198q-53 -52 -137 -52q-89 0 -140 52q-73 74 -73 273q0 86 11.5 148t50.5 115q45 61 127 98l169 76q22 9 29 -5l25 -50q7 -14 -13 -24l-194 -89q-63 -30 -92 -66q-30 -38 -36 -100zM267 403
q-36 0 -62 -24q-39 -38 -39 -144t36 -142q25 -27 67 -27q36 0 60 24q39 39 39 143q0 107 -39 146q-26 24 -62 24z" />
    <glyph glyph-name="afii10067" unicode="&#x432;" horiz-adv-x="506" 
d="M285 0h-170q-13 0 -13 13v397h-54q-13 0 -13 13v51q0 13 13 13h232q94 0 133 -37q34 -34 34 -86q0 -48 -32 -82q-15 -16 -40 -25q35 -8 58 -31q33 -33 33 -85q0 -57 -36 -93q-48 -48 -145 -48zM203 411v-121h70q35 0 56 16q20 16 20 45q0 33 -23 48q-17 12 -55 12h-68z
M203 214v-138h67q55 0 77 24q17 17 17 45q0 35 -23 53q-21 16 -68 16h-70z" />
    <glyph glyph-name="afii10068" unicode="&#x433;" horiz-adv-x="435" 
d="M101 410h-55q-11 0 -11 13v51q0 8 2 10.5t11 2.5h343q8 0 11 -3t3 -11v-162q0 -13 -13 -13h-54q-13 0 -13 13v95h-122v-328h66q13 0 13 -13v-52q0 -13 -13 -13h-221q-13 0 -13 13v52q0 13 13 13h53v332z" />
    <glyph glyph-name="afii10069" unicode="&#x434;" horiz-adv-x="479" 
d="M409 78h46q9 0 11.5 -2.5t2.5 -11.5v-196q0 -13 -13 -13h-69q-9 0 -11 2.5t-2 10.5v132h-269v-132q0 -13 -13 -13h-69q-13 0 -13 13v196q0 9 2.5 11.5t11.5 2.5h32q39 73 52 145q12 65 12 169v18h-54q-11 0 -11 13v51q0 13 11 13h332q11 0 11 -11v-398zM308 406h-100v-49
q0 -77 -13 -145q-14 -70 -42 -131h155v325z" />
    <glyph glyph-name="afii10070" unicode="&#x435;" horiz-adv-x="482" 
d="M407 100l22 -49q7 -14 -11 -25q-66 -41 -156 -41q-102 0 -159 67.5t-57 188.5q0 119 57 190.5t151 71.5q92 0 141.5 -64t49.5 -184q0 -21 -2.5 -29t-14.5 -8h-278q6 -148 121 -148q21 0 41 4.5t29 7.5t29.5 13l22.5 11q10 5 14 -6zM152 295h186q-3 131 -89 131
q-45 0 -68.5 -31.5t-28.5 -99.5z" />
    <glyph glyph-name="afii10072" unicode="&#x436;" horiz-adv-x="668" 
d="M294 487h78q11 0 11 -10v-183h32q28 0 44 15q11 11 20 49l9 43q9 45 35 70q34 32 81 32q19 0 21 -9l16 -59q3 -11 -14 -14l-16 -3q-15 -2 -26 -13q-7 -7 -15 -34l-11 -43q-10 -34 -26 -52q-17 -17 -38 -20q26 -6 43 -23q16 -16 26 -48l21 -65q9 -27 15 -34q9 -11 34 -15
l12 -2q6 -1 8 -2t4.5 -4t-0.5 -9l-16 -57q-3 -12 -20 -12q-64 0 -96 32q-18 18 -31 68l-16 61q-10 39 -23 51q-17 15 -52 15h-21v-201q0 -11 -11 -11h-76q-11 0 -11 11v201h-21q-35 0 -52 -15q-13 -12 -23 -51l-16 -61q-13 -50 -31 -68q-32 -32 -96 -32q-17 0 -20 12l-16 57
q-3 6 -0.5 9t4.5 4t8 2l12 2q25 4 34 15q6 7 15 34l21 65q10 32 26 48q17 17 43 23q-21 3 -38 20q-16 18 -26 52l-11 43q-8 27 -15 34q-11 11 -26 13l-16 3q-18 3 -14 14l16 59q2 9 21 9q47 0 81 -32q26 -25 35 -70l9 -43q9 -38 20 -49q16 -15 44 -15h32v179q0 14 9 14z" />
    <glyph glyph-name="afii10073" unicode="&#x437;" horiz-adv-x="429" 
d="M159 284h16q46 0 69 14q29 17 29 55q0 35 -23 54q-21 16 -56 16q-34 0 -70 -18v-47q0 -12 -11 -12h-54q-11 0 -11 11v83q0 8 11 19q20 17 64 32q39 12 85 12q83 0 127 -44q37 -36 37 -93q0 -49 -25 -78q-22 -26 -54 -34v-3q39 -7 64 -31q32 -31 32 -82q0 -64 -41 -103
q-54 -51 -155 -51q-45 0 -87 13q-39 11 -66 32l-4 3q-10 7 -4 18l27 50q5 10 20 1q40 -22 50 -26q30 -12 64 -12q47 0 70 21q20 20 20 56q0 42 -33 58q-20 10 -71 10h-20q-14 0 -14 13v49q0 8 3 11t11 3z" />
    <glyph glyph-name="afii10074" unicode="&#x438;" horiz-adv-x="582" 
d="M480 78h54q5 0 7 -0.5t4 -3t2 -8.5v-53q0 -13 -13 -13h-143q-12 0 -12 11v214q0 14 3 110h-3q-22 -50 -41 -83l-136 -242q-6 -10 -15 -10h-74q-11 0 -11 12v398h-57q-10 0 -10 11v55q0 11 10 11h148q10 0 10 -11v-213q0 -39 -3 -111h3q23 53 41 84l136 242q5 9 15 9h74
q11 0 11 -12v-397z" />
    <glyph glyph-name="afii10075" unicode="&#x439;" horiz-adv-x="582" 
d="M480 78h54q5 0 7 -0.5t4 -3t2 -8.5v-53q0 -13 -13 -13h-143q-12 0 -12 11v214q0 14 3 110h-3q-22 -50 -41 -83l-136 -242q-6 -10 -15 -10h-74q-11 0 -11 12v398h-57q-10 0 -10 11v55q0 11 10 11h148q10 0 10 -11v-213q0 -39 -3 -111h3q23 53 41 84l136 242q5 9 15 9h74
q11 0 11 -12v-397zM225 681l3 -9q8 -26 16 -36q14 -15 40 -15t40 15q8 10 16 36l3 9q5 13 22 11l50 -8q15 -2 8 -28l-3 -11q-8 -31 -29 -53q-38 -39 -107 -39t-107 39q-21 22 -29 53l-3 11q-7 26 8 28l50 8q17 2 22 -11z" />
    <glyph glyph-name="afii10076" unicode="&#x43a;" horiz-adv-x="499" 
d="M203 213v-202q0 -11 -10 -11h-80q-12 0 -12 12v398h-55q-11 0 -11 11v53q0 13 10 13h147q11 0 11 -12v-181h44q27 0 41 13q15 14 21 45l11 48q11 48 35 71q34 32 84 32q16 0 18 -9l16 -58q3 -12 -13 -15l-15 -3q-18 -4 -26 -12q-8 -7 -15 -30l-15 -52q-7 -29 -24 -46
q-15 -15 -38 -19v-3q24 -4 42 -22q17 -16 27 -49l25 -75q8 -21 16 -28q7 -6 29 -11l12 -2q9 -2 11 -4.5t0 -13.5l-15 -55q-3 -12 -22 -12q-67 0 -95 32q-17 18 -30 69l-19 74q-8 32 -23 43q-14 11 -45 11h-37z" />
    <glyph glyph-name="afii10077" unicode="&#x43b;" horiz-adv-x="533" 
d="M329 78v327h-104v-7q0 -105 -10 -186q-8 -65 -22.5 -109.5t-45.5 -74.5q-45 -44 -108 -44q-20 0 -22 15l-7 55q-2 14 15 17l8 1q32 4 51 22q35 34 43 144q7 98 7 172h-56q-11 0 -11 10v54q0 13 11 13h340q13 0 13 -14v-395h54q13 0 13 -13v-52q0 -13 -13 -13h-204
q-13 0 -13 12v53q0 13 13 13h48z" />
    <glyph glyph-name="afii10078" unicode="&#x43c;" horiz-adv-x="640" 
d="M547 78h44q14 0 14 -14v-49q0 -15 -14 -15h-124q-12 0 -12 12l-9 270v76h-2q-5 -33 -16 -65l-64 -191q-4 -11 -14 -11h-60q-10 0 -14 11l-64 191q-6 17 -15 65h-3v-76l-9 -267q0 -15 -14 -15h-120q-16 0 -16 15v47q0 16 16 16h42l19 332h-45q-12 0 -12 13v51q0 13 10 13
h149q10 0 13 -10l68 -200q14 -39 24 -82h3q5 22 24 82l68 200q3 10 13 10h149q10 0 10 -11v-53q0 -13 -10 -13h-48z" />
    <glyph glyph-name="afii10079" unicode="&#x43d;" horiz-adv-x="576" 
d="M203 210v-132h47q13 0 13 -13v-54q0 -11 -11 -11h-206q-11 0 -11 11v56q0 11 12 11h54v332h-55q-11 0 -11 11v53q0 13 13 13h144q11 0 11 -12v-184h169v119h-48q-13 0 -13 13v51q0 13 11 13h206q13 0 13 -13v-51q0 -13 -13 -13h-54v-332h56q11 0 11 -12v-53
q0 -13 -13 -13h-145q-11 0 -11 13v197h-169z" />
    <glyph glyph-name="afii10080" unicode="&#x43e;" horiz-adv-x="510" 
d="M463 244q0 -121 -56.5 -190t-154.5 -69t-152 68t-54 190q0 121 56.5 190.5t155.5 69.5q97 0 151 -68.5t54 -190.5zM355 247q0 174 -100 174q-101 0 -101 -174q0 -93 24.5 -137t76.5 -44t76 44t24 137z" />
    <glyph glyph-name="afii10081" unicode="&#x43f;" horiz-adv-x="565" 
d="M203 405v-327h47q13 0 13 -12v-55q0 -11 -11 -11h-204q-13 0 -13 11v54q0 13 13 13h53v332h-54q-12 0 -12 12v53q0 12 11 12h474q10 0 10 -10v-56q0 -11 -11 -11h-55v-332h55q11 0 11 -12v-55q0 -11 -10 -11h-147q-11 0 -11 12v393h-159z" />
    <glyph glyph-name="afii10082" unicode="&#x440;" 
d="M34 487h116q4 0 7 -0.5t5.5 -3l4 -4t3.5 -6t3 -6.5t3.5 -9l3.5 -10q42 31 72 43t65 12q164 0 164 -250q0 -131 -45 -199.5t-130 -68.5q-56 0 -110 35v-145h59q12 0 12 -13v-51q0 -14 -12 -14h-215q-12 0 -12 14v51q0 13 12 13h54v458q0 47 -9 76h-51q-14 0 -14 13v52
q0 13 14 13zM196 375v-278q48 -30 89 -30q51 0 71.5 40.5t20.5 141.5q0 90 -19.5 130t-64.5 40q-39 0 -97 -44z" />
    <glyph glyph-name="afii10083" unicode="&#x441;" horiz-adv-x="431" 
d="M375 94l22 -54q6 -13 -6 -20q-60 -35 -140 -35q-98 0 -151.5 65t-53.5 183q0 125 58.5 197.5t159.5 72.5q76 0 123 -32q10 -6 10 -19v-111q0 -13 -12 -13h-60q-12 0 -12 13v66q-30 12 -48 12q-111 0 -111 -177q0 -89 26.5 -131t82.5 -42q47 0 97 28q12 6 15 -3z" />
    <glyph glyph-name="afii10084" unicode="&#x442;" horiz-adv-x="457" 
d="M352 67v-54q0 -9 -2.5 -11t-10.5 -2h-222q-13 0 -13 12v53q0 13 12 13h61v328h-71v-91q0 -11 -11 -11h-53q-12 0 -12 12v160q0 11 11 11h376q10 0 10 -10v-163q0 -11 -10 -11h-56q-11 0 -11 12v91h-71v-328h63q10 0 10 -11z" />
    <glyph glyph-name="afii10085" unicode="&#x443;" horiz-adv-x="470" 
d="M482 474v-52q0 -13 -13 -13h-36l-108 -380q-22 -77 -39 -124q-21 -60 -54 -90.5t-91 -30.5q-68 0 -123 36q-13 8 -6 21l26 49q3 5 5.5 7t4 1.5t5.5 -3.5q37 -22 79 -22q33 0 52 16t29 54l16 57h-38q-12 0 -16 11l-139 398h-36q-12 0 -12 13v52q0 13 12 13h170
q12 0 12 -13v-52q0 -13 -12 -13h-35l94 -284q11 -33 19 -77q17 79 17 81l69 280h-35q-12 0 -12 13v52q0 13 13 13h169q13 0 13 -13z" />
    <glyph glyph-name="afii10086" unicode="&#x444;" horiz-adv-x="684" 
d="M234 701h149q10 0 10 -10v-235q43 36 95 36q57 0 94 -42q55 -62 55 -195q0 -156 -64 -220q-39 -39 -96 -39q-48 0 -84 28v-149h60q11 0 11 -13v-51q0 -13 -13 -13h-214q-13 0 -13 13v51q0 13 10 13h57v149q-36 -28 -84 -28q-57 0 -96 39q-64 64 -64 215q0 141 55 200
q38 42 94 42t95 -36v168h-55q-11 0 -11 13v53q0 11 9 11zM393 375v-271q31 -27 62 -27q35 0 55 28q28 39 28 139q0 104 -29 144q-18 24 -46 24q-40 0 -70 -37zM291 104v271q-27 41 -68 41q-25 0 -43 -19q-5 -5 -11 -16t-14.5 -47.5t-8.5 -84.5q0 -82 17 -126q20 -52 66 -52
q31 0 62 33z" />
    <glyph glyph-name="afii10087" unicode="&#x445;" horiz-adv-x="491" 
d="M476 63v-50q0 -13 -13 -13h-170q-13 0 -13 13v50q0 9 2.5 11.5t10.5 2.5h17l-42 64q-4 5 -7.5 11l-7.5 13.5l-6 11.5l-10 -16.5t-11 -17.5l-46 -66h16q8 0 11 -2.5t3 -11.5v-50q0 -13 -14 -13h-167q-13 0 -13 13v50q0 9 2.5 11.5t10.5 2.5h36l126 170l-113 162h-42
q-7 0 -9.5 3t-2.5 12v50q0 13 12 13h170q13 0 13 -13v-50q0 -9 -2.5 -12t-9.5 -3h-18l34 -52q14 -21 23 -38q14 23 24 37l36 53h-13q-7 0 -9.5 3t-2.5 12v50q0 13 13 13h160q13 0 13 -13v-50q0 -15 -13 -15h-33l-118 -158l122 -174h38q8 0 10.5 -2.5t2.5 -11.5z" />
    <glyph glyph-name="afii10088" unicode="&#x446;" horiz-adv-x="557" 
d="M355 81v329h-48q-13 0 -13 13v53q0 11 11 11h142q10 0 10 -11v-398h51q9 0 11.5 -2.5t2.5 -11.5v-193q0 -13 -10 -13h-75q-10 0 -10 13v129h-379q-13 0 -13 12v53q0 13 13 13h53v332h-54q-12 0 -12 12v53q0 12 11 12h145q12 0 12 -11v-395h152z" />
    <glyph glyph-name="afii10089" unicode="&#x447;" horiz-adv-x="529" 
d="M325 268v142h-50q-11 0 -11 12v52q0 13 13 13h204q13 0 13 -13v-51q0 -13 -13 -13h-54v-332h54q13 0 13 -13v-53q0 -12 -13 -12h-222q-13 0 -13 12v54q0 12 12 12h67v112q-51 -20 -103 -20q-77 0 -115 41q-31 34 -31 105v94h-53q-13 0 -13 13v51q0 13 11 13h144
q13 0 13 -13v-162q0 -26 14 -41q18 -20 58 -20t75 17z" />
    <glyph glyph-name="afii10090" unicode="&#x448;" horiz-adv-x="782" 
d="M578 410h-56q-11 0 -11 13v51q0 13 11 13h214q11 0 11 -11v-55q0 -11 -10 -11h-57v-332h54q13 0 13 -13v-52q0 -13 -14 -13h-685q-13 0 -13 13v53q0 12 12 12h55v332h-56q-11 0 -11 13v51q0 13 13 13h143q13 0 13 -13v-393h136v329h-57q-10 0 -10 11v53q0 13 13 13h143
q13 0 13 -13v-393h136v329z" />
    <glyph glyph-name="afii10091" unicode="&#x449;" horiz-adv-x="779" 
d="M650 0h-603q-12 0 -12 13v53q0 12 12 12h55v332h-56q-11 0 -11 13v51q0 13 13 13h143q13 0 13 -13v-393h136v329h-57q-10 0 -10 11v53q0 13 13 13h143q13 0 13 -13v-393h136v329h-56q-11 0 -11 13v51q0 13 11 13h148q10 0 10 -11v-398h51q14 0 14 -14v-195q0 -11 -10 -11
h-76q-9 0 -9 9v133z" />
    <glyph glyph-name="afii10092" unicode="&#x44a;" horiz-adv-x="556" 
d="M288 307h73q91 0 139 -47q41 -41 41 -107q0 -68 -41 -107q-49 -46 -145 -46h-223q-13 0 -13 12v53q0 13 12 13h55v328h-77v-87q0 -12 -12 -12h-55q-12 0 -12 13v156q0 11 11 11h235q12 0 12 -12v-168zM288 226v-145h69q40 0 62 20q20 20 20 52q0 35 -20 53q-21 20 -66 20
h-65z" />
    <glyph glyph-name="afii10093" unicode="&#x44b;" horiz-adv-x="711" 
d="M508 410h-60q-13 0 -13 13v51q0 13 13 13h219q9 0 9 -10v-54q0 -13 -10 -13h-56v-332h56q10 0 10 -11v-54q0 -13 -11 -13h-143q-14 0 -14 15v395zM203 307h66q90 0 137 -37q50 -40 50 -114q0 -71 -41 -110q-47 -46 -155 -46h-213q-12 0 -12 11v55q0 12 12 12h54v332h-54
q-12 0 -12 13v51q0 13 13 13h144q11 0 11 -11v-169zM203 226v-145h63q48 0 70 23q18 18 18 50q0 33 -21 52q-21 20 -67 20h-63z" />
    <glyph glyph-name="afii10094" unicode="&#x44c;" horiz-adv-x="471" 
d="M46 487h146q11 0 11 -12v-168h73q91 0 139 -47q41 -41 41 -107q0 -68 -41 -107q-49 -46 -145 -46h-222q-8 0 -10.5 2t-2.5 11v52q0 13 13 13h53v332h-53q-13 0 -13 13v51q0 13 11 13zM203 226v-145h69q40 0 62 20q20 18 20 53q0 32 -20 52q-21 20 -66 20h-65z" />
    <glyph glyph-name="afii10095" unicode="&#x44d;" horiz-adv-x="454" 
d="M139 412v-55q0 -11 -11 -11h-57q-12 0 -12 12v96q0 13 13 19l11 5q55 25 117 25q96 0 149 -61q58 -67 58 -191q0 -145 -67 -212q-55 -55 -149 -55q-37 0 -80 13q-37 13 -59 29l-4 3q-12 9 -6 20l24 48q3 6 9 6t13 -5l7 -4q52 -30 89 -30q46 0 74 26q41 38 41 117h-137
q-13 0 -13 13v53q0 13 14 13h136q2 73 -35 111q-26 26 -70 26q-30 0 -55 -11z" />
    <glyph glyph-name="afii10096" unicode="&#x44e;" horiz-adv-x="724" 
d="M204 296h68q7 96 66 155q53 52 133 52q81 0 134 -52q72 -69 72 -203q0 -140 -73 -212q-52 -51 -129 -51q-83 0 -138 51q-65 61 -67 179h-66v-202q0 -13 -11 -13h-80q-11 0 -11 13v397h-54q-13 0 -13 13v51q0 13 13 13h146q10 0 10 -10v-181zM471 67q36 0 60 23
q38 37 38 152q0 121 -43 159q-24 20 -55 20q-37 0 -60 -23q-39 -37 -39 -152q0 -116 36 -154q23 -25 63 -25z" />
    <glyph glyph-name="afii10097" unicode="&#x44f;" horiz-adv-x="516" 
d="M415 78h55q11 0 11 -12v-53q0 -13 -12 -13h-145q-11 0 -11 13v180h-44q-29 0 -47 -15q-16 -13 -24 -47l-14 -52q-13 -46 -29 -63q-15 -17 -50 -26q-23 -6 -47 -6q-17 0 -21 12l-17 55q-5 16 12 18l7 1q23 4 32 10q14 10 22 37l12 39q10 31 24 48q14 16 33 22v3
q-39 5 -69 35q-31 33 -31 79q0 64 40 102q43 42 137 42h163q13 0 13 -13v-396zM313 274v132h-64q-44 0 -65 -18q-20 -18 -20 -49q0 -30 21 -47q22 -18 71 -18h57z" />
    <glyph glyph-name="afii10071" unicode="&#x451;" horiz-adv-x="482" 
d="M407 100l22 -49q7 -14 -11 -25q-66 -41 -156 -41q-102 0 -159 67.5t-57 188.5q0 119 57 190.5t151 71.5q92 0 141.5 -64t49.5 -184q0 -21 -2.5 -29t-14.5 -8h-278q6 -148 121 -148q21 0 41 4.5t29 7.5t29.5 13l22.5 11q10 5 14 -6zM152 295h186q-3 131 -89 131
q-45 0 -68.5 -31.5t-28.5 -99.5zM406 648q0 -26 -18 -43.5t-43 -17.5t-43 18t-18 43q0 26 18 44.5t43 18.5t43 -18.5t18 -44.5zM219 648q0 -25 -18.5 -43t-43.5 -18t-42.5 18t-17.5 43q0 26 17.5 44.5t42.5 18.5t43.5 -18.5t18.5 -44.5z" />
    <glyph glyph-name="afii10099" unicode="&#x452;" horiz-adv-x="546" 
d="M206 554v-114q65 63 143 63q50 0 81 -30q51 -49 51 -188q0 -202 -51 -327q-43 -108 -119 -184q-10 -10 -15 -10q-4 0 -10 4l-38 25q-7 5 -7 10t15 25q57 77 87 163q34 96 34 260q0 96 -16 132t-55 36q-25 0 -61 -23q-21 -13 -39 -31v-352q0 -8 -2 -10.5t-11 -2.5h-143
q-9 0 -11 2.5t-2 10.5v52q0 13 13 13h54v476h-60q-13 0 -13 13v31q0 8 2 10.5t11 2.5h60v58h-63q-13 0 -13 13v52q0 13 13 13h151q8 0 11 -3t3 -11v-122h124q14 0 14 -15v-29q0 -13 -13 -13h-125z" />
    <glyph glyph-name="afii10100" unicode="&#x453;" horiz-adv-x="435" 
d="M101 410h-55q-11 0 -11 13v51q0 8 2 10.5t11 2.5h343q8 0 11 -3t3 -11v-162q0 -13 -13 -13h-54q-13 0 -13 13v95h-122v-328h66q13 0 13 -13v-52q0 -13 -13 -13h-221q-13 0 -13 13v52q0 13 13 13h53v332zM324 716l33 -53q5 -8 5 -11q0 -6 -15 -12l-171 -78q-8 -3 -11 -3
q-4 0 -7 6l-17 32q-3 6 -3 9t10 10l154 105q8 6 12 6t10 -11z" />
    <glyph glyph-name="afii10101" unicode="&#x454;" horiz-adv-x="465" 
d="M318 359v53q-31 11 -56 11q-43 0 -70 -27q-35 -35 -35 -110h133q13 0 13 -13v-53q0 -13 -13 -13h-133q2 -63 27 -99q30 -44 89 -44q50 0 98 28q17 9 21 0l22 -53q5 -11 -9 -20q-58 -35 -137 -35q-99 0 -157 60q-62 65 -62 201q0 134 58 197q56 61 149 61q64 0 117 -25
l11 -5q13 -6 13 -19v-95q0 -13 -13 -13h-53q-13 0 -13 13z" />
    <glyph glyph-name="afii10102" unicode="&#x455;" horiz-adv-x="417" 
d="M215 297l98 -51q65 -34 65 -110q0 -68 -45 -109.5t-119 -41.5q-82 0 -156 38q-10 5 -10 15v101q0 13 14 13h55q7 0 9.5 -3t2.5 -12v-55q51 -16 81 -16q33 0 52 16.5t19 45.5q0 23 -14 37t-57 32q-88 37 -114 62q-39 37 -39 93q0 66 46.5 108.5t119.5 42.5q75 0 121 -29
q12 -8 12 -17v-96q0 -13 -13 -13h-55q-12 0 -12 13v52q-36 10 -53 10q-34 0 -52 -15.5t-18 -43.5q0 -21 13 -34.5t49 -32.5z" />
    <glyph glyph-name="afii10103" unicode="&#x456;" horiz-adv-x="306" 
d="M233 648q0 -29 -21 -50t-50 -21q-30 0 -51 21t-21 50q0 30 21 51t51 21q29 0 50 -21.5t21 -50.5zM297 65v-53q0 -12 -12 -12h-240q-12 0 -12 12v53q0 12 12 12h70v332h-71q-10 0 -12 2.5t-2 12.5v48q0 10 2.5 12.5t12.5 2.5h156q10 0 12.5 -2.5t2.5 -12.5v-395h69
q12 0 12 -12z" />
    <glyph glyph-name="afii10104" unicode="&#x457;" horiz-adv-x="306" 
d="M297 65v-53q0 -12 -12 -12h-240q-12 0 -12 12v53q0 12 12 12h70v332h-71q-10 0 -12 2.5t-2 12.5v48q0 10 2.5 12.5t12.5 2.5h156q10 0 12.5 -2.5t2.5 -12.5v-395h69q12 0 12 -12zM270 648q0 -26 -18 -43.5t-43 -17.5t-43 18t-18 43q0 26 18 44.5t43 18.5t43 -18.5
t18 -44.5zM112 648q0 -25 -18.5 -43t-43.5 -18t-42.5 18t-17.5 43q0 26 17.5 44.5t42.5 18.5t43.5 -18.5t18.5 -44.5z" />
    <glyph glyph-name="afii10105" unicode="&#x458;" horiz-adv-x="292" 
d="M230 648q0 -30 -21 -50.5t-50 -20.5q-30 0 -51 21t-21 50q0 30 21.5 51t50.5 21t50 -21t21 -51zM215 472v-501q0 -35 -1.5 -56t-11.5 -49.5t-29 -47.5q-41 -41 -117 -41q-57 0 -106 22q-14 6 -8 20l21 58q4 9 15 4q40 -19 72 -19q40 0 51.5 27t11.5 92v428h-78
q-9 0 -11.5 2.5t-2.5 12.5v48q0 11 2.5 13t13.5 2h164q9 0 11.5 -2.5t2.5 -12.5z" />
    <glyph glyph-name="afii10106" unicode="&#x459;" horiz-adv-x="704" 
d="M436 307h73q91 0 139 -47q41 -41 41 -107q0 -68 -41 -107q-49 -46 -145 -46h-217q-13 0 -13 12v53q0 13 13 13h48v327h-104v-7q0 -105 -10 -186q-8 -65 -22.5 -109.5t-45.5 -74.5q-45 -44 -108 -44q-20 0 -22 15l-7 55q-2 14 15 17l8 1q32 4 51 22q35 34 43 144
q7 98 7 172h-56q-11 0 -11 10v54q0 13 11 13h342q11 0 11 -12v-168zM436 226v-145h69q40 0 62 20q20 18 20 53q0 32 -20 52q-21 20 -66 20h-65z" />
    <glyph glyph-name="afii10107" unicode="&#x45a;" horiz-adv-x="736" 
d="M468 307h73q91 0 139 -47q41 -41 41 -107q0 -68 -41 -107q-49 -46 -145 -46h-159q-10 0 -10 13v213h-169v-148h47q13 0 13 -13v-54q0 -11 -11 -11h-206q-11 0 -11 11v56q0 11 12 11h54v332h-55q-11 0 -11 11v53q0 13 13 13h144q11 0 11 -12v-168h169v103h-48
q-13 0 -13 13v51q0 13 11 13h206q13 0 13 -13v-51q0 -13 -13 -13h-54v-103zM468 226v-145h69q40 0 62 20q20 18 20 53q0 32 -20 52q-21 20 -66 20h-65z" />
    <glyph glyph-name="afii10108" unicode="&#x45b;" horiz-adv-x="572" 
d="M206 554v-114q62 63 147 63q61 0 91 -30q35 -34 35 -118v-278h56q11 0 11 -13v-52q0 -12 -11 -12h-146q-12 0 -12 13v321q0 54 -18 71q-14 14 -43 14q-56 0 -110 -54v-288h56q11 0 11 -10v-56q0 -11 -11 -11h-211q-12 0 -12 12v53q0 12 13 12h52v477h-59q-14 0 -14 13v31
q0 13 12 13h61v59h-65q-11 0 -11 13v51q0 13 11 13h155q12 0 12 -13v-123h125q13 0 13 -13v-31q0 -13 -11 -13h-127z" />
    <glyph glyph-name="afii10109" unicode="&#x45c;" horiz-adv-x="499" 
d="M203 213v-202q0 -11 -10 -11h-80q-12 0 -12 12v398h-55q-11 0 -11 11v53q0 13 10 13h147q11 0 11 -12v-181h44q27 0 41 13q15 14 21 45l11 48q11 48 35 71q34 32 84 32q16 0 18 -9l16 -58q3 -12 -13 -15l-15 -3q-18 -4 -26 -12q-8 -7 -15 -30l-15 -52q-7 -29 -24 -46
q-15 -15 -38 -19v-3q24 -4 42 -22q17 -16 27 -49l25 -75q8 -21 16 -28q7 -6 29 -11l12 -2q9 -2 11 -4.5t0 -13.5l-15 -55q-3 -12 -22 -12q-67 0 -95 32q-17 18 -30 69l-19 74q-8 32 -23 43q-14 11 -45 11h-37zM359 716l33 -53q5 -8 5 -11q0 -6 -15 -12l-171 -78
q-8 -3 -11 -3q-4 0 -7 6l-17 32q-3 6 -3 9t10 10l154 105q7 6 12 6q4 0 10 -11z" />
    <glyph glyph-name="afii10110" unicode="&#x45e;" horiz-adv-x="470" 
d="M482 474v-52q0 -13 -13 -13h-36l-108 -380q-22 -77 -39 -124q-21 -60 -54 -90.5t-91 -30.5q-68 0 -123 36q-13 8 -6 21l26 49q3 5 5.5 7t4 1.5t5.5 -3.5q37 -22 79 -22q33 0 52 16t29 54l16 57h-38q-12 0 -16 11l-139 398h-36q-12 0 -12 13v52q0 13 12 13h170
q12 0 12 -13v-52q0 -13 -12 -13h-35l94 -284q11 -33 19 -77q17 79 17 81l69 280h-35q-12 0 -12 13v52q0 13 13 13h169q13 0 13 -13zM176 681l3 -9q8 -26 16 -36q14 -15 40 -15t40 15q8 10 16 36l3 9q4 13 22 11l50 -8q15 -2 8 -28l-3 -11q-8 -31 -29 -53q-38 -39 -107 -39
t-107 39q-21 22 -29 53l-3 11q-7 26 8 28l50 8q18 2 22 -11z" />
    <glyph glyph-name="afii10193" unicode="&#x45f;" horiz-adv-x="546" 
d="M349 81v329h-48q-13 0 -13 13v53q0 11 11 11h207q11 0 11 -12v-53q0 -12 -12 -12h-54v-332h53q13 0 13 -13v-53q0 -12 -13 -12h-184v-134q0 -13 -10 -13h-75q-10 0 -10 13v134h-183q-13 0 -13 12v53q0 13 13 13h53v332h-54q-12 0 -12 12v53q0 12 11 12h145q12 0 12 -11
v-395h152z" />
    <glyph glyph-name="afii10050" unicode="&#x490;" horiz-adv-x="472" 
d="M114 605h-60q-14 0 -14 16v49q0 15 14 15h317v119q0 15 12 15h56q13 0 13 -15v-193q0 -15 -13 -15h-217v-515h75q15 0 15 -17v-47q0 -17 -17 -17h-238q-17 0 -17 17v47q0 17 14 17h60v524z" />
    <glyph glyph-name="afii10098" unicode="&#x491;" horiz-adv-x="409" 
d="M95 410h-55q-11 0 -11 13v51q0 8 2 10.5t11 2.5h272v105q0 13 13 13h54q13 0 13 -13v-173q0 -13 -13 -13h-184v-328h66q13 0 13 -13v-52q0 -13 -13 -13h-221q-13 0 -13 13v52q0 13 13 13h53v332z" />
    <glyph glyph-name="endash" unicode="&#x2013;" horiz-adv-x="510" 
d="M468 283v-53q0 -11 -3 -14t-14 -3h-392q-11 0 -14 3t-3 14v53q0 11 3 14t14 3h392q11 0 14 -3t3 -14z" />
    <glyph glyph-name="emdash" unicode="&#x2014;" horiz-adv-x="814" 
d="M774 281v-49q0 -11 -3 -14t-14 -3h-700q-11 0 -14 3t-3 14v49q0 11 3 14t14 3h700q11 0 14 -3t3 -14z" />
    <glyph glyph-name="quoteleft" unicode="&#x2018;" horiz-adv-x="217" 
d="M201 684l-61 -203q-4 -13 -18 -13h-90q-23 0 -11 21l117 218l4.5 7.5t4.5 3t5 0t8 -2.5l32 -11q9 -4 10.5 -7t-1.5 -13z" />
    <glyph glyph-name="quoteright" unicode="&#x2019;" horiz-adv-x="209" 
d="M232 690l-117 -218q-5 -9 -9.5 -10.5t-13.5 2.5l-32 10q-9 3 -10 7t2 14l60 202q4 14 18 14h90q24 0 12 -21z" />
    <glyph glyph-name="quotedblleft" unicode="&#x201c;" horiz-adv-x="403" 
d="M386 684l-61 -203q-4 -13 -18 -13h-90q-23 0 -11 21l117 218l4.5 7.5t4.5 3t5 0t8 -2.5l32 -11q9 -3 10.5 -6t-1.5 -14zM201 684l-61 -203q-4 -13 -18 -13h-90q-23 0 -11 21l117 218l4.5 7.5t4.5 3t5 0t8 -2.5l32 -11q9 -4 10.5 -7t-1.5 -13z" />
    <glyph glyph-name="quotedblright" unicode="&#x201d;" horiz-adv-x="395" 
d="M418 688l-118 -218q-5 -10 -8.5 -11t-13.5 3l-32 11q-10 4 -11 7.5t3 13.5l59 201q5 15 19 15h89q26 0 13 -22zM232 688l-117 -218q-5 -10 -8.5 -11t-13.5 3l-32 11q-10 4 -11 7.5t2 13.5l60 201q4 15 19 15h89q25 0 12 -22z" />
    <glyph glyph-name="quotedblbase" unicode="&#x201e;" horiz-adv-x="468" 
d="M427 99l-118 -218q-5 -10 -8.5 -11.5t-13.5 2.5l-32 11q-10 3 -11 7t3 13l59 203q4 13 19 13h89q24 0 13 -20zM241 99l-117 -218q-5 -10 -8.5 -11t-13.5 2l-32 11q-10 3 -11 6.5t2 13.5l60 203q4 13 19 13h89q23 0 12 -20z" />
    <glyph glyph-name="dagger" unicode="&#x2020;" 
d="M445 451v-50q0 -11 -2.5 -13.5t-13.5 -2.5h-119v-579q0 -11 -3 -14.5t-13 -3.5h-59q-11 0 -14 3.5t-3 14.5v579h-117q-12 0 -15 2.5t-3 13.5v50q0 11 3.5 14t14.5 3h117v201q0 11 3 14t14 3h59q11 0 13.5 -3t2.5 -14v-201h119q11 0 13.5 -3t2.5 -14z" />
    <glyph glyph-name="bullet" unicode="&#x2022;" horiz-adv-x="696" 
d="M489 350q0 -59 -41 -101.5t-99 -42.5t-100 42.5t-42 101.5t42 101.5t100 42.5t99 -42.5t41 -101.5z" />
    <glyph glyph-name="ellipsis" unicode="&#x2026;" horiz-adv-x="899" 
d="M829 68q0 -34 -24 -58t-59 -24t-59 24t-24 58t24.5 58t58.5 24t58.5 -24t24.5 -58zM532 68q0 -34 -24 -58t-59 -24t-58.5 24t-23.5 58t24 58t58 24t58.5 -24t24.5 -58zM235 68q0 -34 -23.5 -58t-58.5 -24t-58.5 24t-23.5 58t24 58t58 24t58 -24t24 -58z" />
    <glyph glyph-name="Euro" unicode="&#x20ac;" horiz-adv-x="561" 
d="M506 177v-125q0 -18 -23 -31q-65 -37 -141 -37q-99 0 -162 64q-37 37 -61.5 94t-27.5 120h-62q-13 0 -10 12l6 27q2 11 16 11h46v56h-59q-12 0 -10 11l7 28q3 11 16 11h49q5 99 48 171q35 59 89 85.5t112 26.5q44 0 88 -16q45 -16 60 -31q12 -10 12 -21v-122
q0 -15 -14 -15h-59q-9 0 -12 3t-3 12v89q-34 17 -72 17q-60 0 -94 -40q-44 -51 -46 -159h196q16 0 13 -9l-11 -32q-3 -9 -17 -9h-182v-56h169q19 0 12 -13l-11 -27q-4 -10 -16 -10h-152q4 -104 56 -158q35 -36 87 -36q39 0 75 18v91q0 9 2.5 11.5t11.5 2.5h59q15 0 15 -14z
" />
    <glyph glyph-name="afii61352" unicode="&#x2116;" horiz-adv-x="942" 
d="M917 524q0 -85 -44 -127q-37 -35 -92 -35t-88 34q-43 43 -43 129q0 82 44 126q37 35 91 35t89 -33q43 -41 43 -129zM784 425q19 0 31 11q23 20 23 90q0 64 -23 86q-12 12 -31 12q-18 0 -31 -11q-24 -19 -24 -87q0 -69 23 -90q12 -11 32 -11zM914 255v-36q0 -17 -17 -17
h-227q-17 0 -17 17v36q0 17 17 17h227q17 0 17 -17zM623 670v-51q0 -14 -13 -14h-61v-592q0 -13 -13 -13h-64q-14 0 -20 11l-208 419q-27 53 -44 112q7 -58 7 -107v-355h60q13 0 13 -16v-49q0 -9 -3 -12t-12 -3h-212q-13 0 -13 15v52q0 13 13 13h61v525h-63q-11 0 -11 13v56
q0 12 13 12h153q11 0 16 -10l198 -399q25 -50 40 -102q-5 47 -5 105v325h-63q-11 0 -11 11v58q0 12 10 12h217q15 0 15 -16z" />
    <glyph glyph-name="trademark" unicode="&#x2122;" horiz-adv-x="765" 
d="M730 322v-29q0 -13 -14 -13h-126q-14 0 -14 13v29q0 13 14 13h28l-4 169q0 5 -1 21t0 25l-58 -173q-4 -11 -17 -11h-26q-8 0 -10.5 1.5t-5.5 9.5l-56 173v-55l-5 -160h29q15 0 15 -13v-29q0 -13 -15 -13h-123q-14 0 -14 13v29q0 13 14 13h26l15 281h-30q-14 0 -14 13v29
q0 14 14 14h95q11 0 14 -10l57 -165q8 -21 10 -34q0 2 3.5 15t5.5 19l58 163q4 12 16 12h94q14 0 14 -14v-29q0 -13 -14 -13h-30l16 -281h25q14 0 14 -13zM308 657v-99q0 -13 -13 -13h-30q-14 0 -14 13v53h-42v-276h35q15 0 15 -14v-27q0 -14 -15 -14h-145q-15 0 -15 14v27
q0 14 15 14h35v276h-42v-53q0 -13 -13 -13h-30q-14 0 -14 13v99q0 15 16 15h242q15 0 15 -15z" />
    <glyph glyph-name="radical" unicode="&#x221a;" horiz-adv-x="490" 
d="M88 419h-54q-8 0 -11 3t-3 11v40q0 8 3 11t11 3h108q10 0 12 -8l102 -376h3l157 592q2 8 9 8h46q11 0 9 -11l-195 -737q-1 -9 -12 -9h-49q-9 0 -11 10z" />
    <glyph glyph-name="infinity" unicode="&#x221e;" horiz-adv-x="840" 
d="M420 339l16 16q44 44 72 63q52 35 113 35q72 0 119 -45q45 -44 45 -117q0 -74 -46 -118q-44 -44 -117 -44q-59 0 -113 36q-29 19 -73 63l-16 16l-16 -16q-44 -44 -73 -63q-54 -36 -113 -36q-73 0 -117 44q-46 44 -46 118q0 73 45 117q47 45 119 45q61 0 113 -35
q28 -19 72 -63zM465 291l27 -25q34 -32 59 -45q31 -17 68 -17q42 0 70 28q24 24 24 60q0 34 -23 59q-26 28 -71 28q-36 0 -71 -20q-35 -21 -56 -42zM376 291l-27 26q-21 21 -56 42q-35 20 -71 20q-45 0 -71 -28q-23 -25 -23 -59q0 -36 24 -60q28 -28 70 -28q37 0 68 17
q25 13 59 45z" />
    <glyph glyph-name="approxequal" unicode="&#x2248;" horiz-adv-x="713" 
d="M559 501l32 -19q9 -6 9.5 -10t-5.5 -13q-54 -108 -146 -108q-34 0 -93 24l-54 22q-33 14 -55 14q-24 0 -41 -12.5t-35 -42.5q-6 -10 -10 -10.5t-13 5.5l-29 19q-9 6 -9.5 9.5t4.5 13.5q30 63 61 88.5t79 25.5q35 0 112 -32q48 -20 62 -24.5t32 -4.5q48 0 77 48
q6 10 9.5 11t12.5 -4zM569 343l32 -19q9 -6 9.5 -10t-5.5 -13q-54 -108 -146 -108q-34 0 -93 24l-54 22q-33 14 -55 14q-24 0 -41 -12.5t-35 -42.5q-6 -10 -10 -10.5t-13 5.5l-29 19q-9 6 -9.5 9.5t4.5 13.5q30 63 61 88.5t79 25.5q35 0 112 -32q48 -20 62 -24.5t32 -4.5
q48 0 77 48q6 10 9.5 11t12.5 -4z" />
    <glyph glyph-name="notequal" unicode="&#x2260;" horiz-adv-x="524" 
d="M485 468v-66q0 -11 -11 -11h-140l-50 -79h192q9 0 9 -10v-68q0 -10 -10 -10h-244l-60 -94q-6 -8 -14 -2l-44 28q-5 4 -1 13l35 55h-97q-11 0 -11 11v65q0 12 11 12h152l50 79h-203q-10 0 -10 11v65q0 12 10 12h258l59 94q4 9 12 4l45 -29q8 -5 1 -14l-34 -55h84
q11 0 11 -11z" />
    <glyph glyph-name="lessequal" unicode="&#x2264;" horiz-adv-x="512" 
d="M33 364v61q0 13 13 20l421 204q12 5 12 -4v-80q0 -8 -12 -14l-328 -155l330 -154q10 -6 10 -12v-80q0 -4 -3.5 -6t-8.5 0l-426 206q-8 5 -8 14zM33 215v67q0 7 5 10.5t12 -0.5l424 -205q5 -3 5 -9v-69q0 -6 -5.5 -9t-12.5 0l-417 201q-11 5 -11 14z" />
    <glyph glyph-name="greaterequal" unicode="&#x2265;" horiz-adv-x="512" 
d="M479 425v-61q0 -9 -8 -14l-426 -206q-5 -2 -8.5 0t-3.5 6v80q0 6 10 12l330 154l-328 155q-12 6 -12 14v80q0 9 12 4l421 -204q13 -7 13 -20zM479 282v-67q0 -9 -11 -14l-417 -201q-7 -3 -12.5 0t-5.5 9v69q0 6 5 9l424 205q7 4 12 0.5t5 -10.5z" />
    <glyph glyph-name="Acute" unicode="&#xf6c9;" horiz-adv-x="515" 
d="M394 894l33 -53q5 -8 5 -11q0 -6 -15 -12l-171 -78q-7 -3 -11 -3t-7 6l-17 32q-3 6 -3 9t10 10l154 105q8 6 12 6t10 -11z" />
    <glyph glyph-name="Dieresis" unicode="&#xf6cb;" horiz-adv-x="510" 
d="M410 798q0 -26 -18 -43.5t-43 -17.5t-43 18t-18 43q0 26 18 44.5t43 18.5t43 -18.5t18 -44.5zM223 798q0 -25 -18.5 -43t-43.5 -18t-42.5 18t-17.5 43q0 26 17.5 44.5t42.5 18.5t43.5 -18.5t18.5 -44.5z" />
    <glyph glyph-name="cyrBreve" unicode="&#xf6d1;" horiz-adv-x="374" 
d="M332 824l-1 -4q-13 -47 -46 -70q-37 -26 -100 -26q-60 0 -96 26t-46 70l-1 4q-6 25 8 27l55 9q15 2 19 -14l3 -10q7 -24 19 -35q15 -13 42 -13q26 0 40 13q10 8 19 35l3 10q4 16 19 14l55 -9q14 -2 8 -27z" />
    <glyph glyph-name="cyrbreve" unicode="&#xf6d4;" horiz-adv-x="340" 
d="M111 681l3 -9q8 -26 16 -36q14 -15 40 -15t40 15q8 10 16 36l3 9q5 13 22 11l50 -8q15 -2 8 -28l-3 -11q-8 -31 -29 -53q-38 -39 -107 -39t-107 39q-21 22 -29 53l-3 11q-7 26 8 28l50 8q18 2 22 -11z" />
    <glyph glyph-name="nbspace" horiz-adv-x="233" 
 />
    </font>
</defs>
</svg>
