<svg class="_add_icon" viewBox="10 11 17 15" xmlns="http://www.w3.org/2000/svg">
    <path d="M20 17v-4.993C20 11.45 19.553 11 19 11h-1c-.557 0-1 .45-1 1.007V17h-4.993C11.45 17 11 17.447 11 18v1c0 .557.45 1 1.007 1H17v4.993c0 .558.447 1.007 1 1.007h1c.557 0 1-.45 1-1.007V20h4.993C25.55 20 26 19.553 26 19v-1c0-.557-.45-1-1.007-1H20z" fill="#FFF" fill-rule="evenodd" class="_plus"></path>
    <!--<path stroke="#FFF" stroke-width="3" stroke-linecap="round" stroke-linejoin="round" fill="none" d="M11.5 18.5L16 23l9.5-9.5" class="_mark"></path>-->
</svg>