<svg class="videoplayer_play_icon" viewBox="175 567 21 18" xmlns="http://www.w3.org/2000/svg">
    <path d="M181.676 584.73c-.925.603-1.676.196-1.676-.9v-15.662c0-1.1.744-1.5 1.662-.896l11.67 7.693c.92.605.92 1.58-.013 2.187l-11.644 7.578z" fill="#FFF" class="_play"></path>
    <path d="M180 567.993c0-.548.444-.993 1-.993h3c.552 0 1 .445 1 .993v16.014c0 .548-.444.993-1 .993h-3c-.552 0-1-.445-1-.993v-16.014zm9 0c0-.548.444-.993 1-.993h3c.552 0 1 .445 1 .993v16.014c0 .548-.444.993-1 .993h-3c-.552 0-1-.445-1-.993v-16.014z" fill="#FFF" class="_pause"></path>
    <path d="M178 576c0-4.97 4.03-9 9-9s9 4.03 9 9-4.03 9-9 9c-1.625 0-3.15-.43-4.464-1.184l2.036-2.327c.743.327 1.564.51 2.428.51 3.314 0 6-2.686 6-6s-2.686-6-6-6-6 2.686-6 6h3l-4.5 5-4.5-5h3z" fill="#FFF" class="_replay"></path>
</svg>