<svg class="videoplayer_play_icon" viewBox="175 567 21 18" xmlns="http://www.w3.org/2000/svg"><path d="M181.676 584.73c-.925.603-1.676.196-1.676-.9v-15.662c0-1.1.744-1.5 1.662-.896l11.67 7.693c.92.605.92 1.58-.013 2.187l-11.644 7.578z" fill="#FFF" class="_play"/><path d="M180 567.993a.994.994 0 0 1 1-.993h3c.552 0 1 .445 1 .993v16.014a.994.994 0 0 1-1 .993h-3c-.552 0-1-.445-1-.993v-16.014zm9 0a.994.994 0 0 1 1-.993h3c.552 0 1 .445 1 .993v16.014a.994.994 0 0 1-1 .993h-3c-.552 0-1-.445-1-.993v-16.014z" fill="#FFF" class="_pause"/><path d="M178 576a9 9 0 1 1 4.536 7.816l2.036-2.327c.743.327 1.564.51 2.428.51a6 6 0 1 0-6-6h3l-4.5 5-4.5-5h3z" fill="#FFF" class="_replay"/></svg>